<?xml version="1.0" encoding="UTF-8" standalone="no"?>
<svg width="12px" height="15px" viewBox="0 0 12 15" version="1.1" xmlns="http://www.w3.org/2000/svg" xmlns:xlink="http://www.w3.org/1999/xlink" xmlns:sketch="http://www.bohemiancoding.com/sketch/ns">
    <title>padlock</title>
    <description>Created with Sketch (http://www.bohemiancoding.com/sketch)</description>
    <defs></defs>
    <g id="Page-1" stroke="none" stroke-width="1" fill="none" fill-rule="evenodd" sketch:type="MSPage">
        <g id="Group" sketch:type="MSLayerGroup" transform="translate(1.000000, 1.000000)">
            <path d="M10,13.2 C10,13.4 9.8,13.6 9.6,13.6 L0.2,13.6 C3.55271368e-15,13.6 -0.2,13.4 -0.2,13.2 L-0.2,6.2 C-0.2,6 3.55271368e-15,5.8 0.2,5.8 L9.6,5.8 C9.8,5.8 10,6 10,6.2 L10,13.2 L10,13.2 Z" id="Shape" stroke="#E57D00" stroke-width="0.5" fill="#FFFFFF" sketch:type="MSShapeGroup"></path>
            <path d="M4.9,-0.4 C2.2,-0.4 0,2.3 0,5.7 L0,5.8 C0.1,5.8 0.1,5.7 0.2,5.7 L1.5,5.7 C1.5,3.1 3,1 4.9,1 C6.8,1 8.3,3.1 8.3,5.7 L9.6,5.7 C9.7,5.7 9.8,5.7 9.8,5.8 L9.8,5.7 C9.8,2.4 7.7,-0.4 4.9,-0.4 L4.9,-0.4 Z" id="Shape" stroke="#E57D00" stroke-width="0.5" fill="#FFFFFF" sketch:type="MSShapeGroup"></path>
            <path d="M6.1,8.5 C6.1,7.9 5.6,7.4 5,7.4 C4.4,7.4 3.9,7.9 3.9,8.5 C3.9,8.8 4.1,9.1 4.3,9.4 L4.3,11.6 L5.8,11.6 L5.8,9.4 C5.9,9.2 6.1,8.9 6.1,8.5 L6.1,8.5 Z" id="Shape" fill="#E57D00" sketch:type="MSShapeGroup"></path>
        </g>
    </g>
</svg>