<?xml version="1.0" encoding="UTF-8" standalone="no"?>
<svg width="22px" height="18px" viewBox="0 0 22 18" version="1.1" xmlns="http://www.w3.org/2000/svg" xmlns:xlink="http://www.w3.org/1999/xlink" xmlns:sketch="http://www.bohemiancoding.com/sketch/ns">
    <title>PI-logo-yellow-red</title>
    <description>Created with Sketch (http://www.bohemiancoding.com/sketch)</description>
    <defs></defs>
    <g id="Page-1" stroke="none" stroke-width="1" fill="none" fill-rule="evenodd" sketch:type="MSPage">
        <g id="Group" sketch:type="MSLayerGroup">
            <g transform="translate(3.000000, 0.000000)" id="Shape" fill="#FFE254" sketch:type="MSShapeGroup">
                <path d="M1.9,6 C3,3.2 5.6,1.3 8.8,1.3 C10,1.3 11.2,1.6 12.2,2.2 L13,1.4 C11.8,0.7 10.3,0.3 8.8,0.3 C5.1,0.3 1.9,2.7 0.8,6.1 L1.9,6.1 L1.9,6 Z"></path>
                <path d="M1.4,8.7 L0.4,8.7 L0.4,9.3 L1.4,9.3 L1.4,8.7 L1.4,8.7 Z"></path>
                <path d="M1.6,10.3 L0.5,10.3 C0.5,10.5 0.6,10.7 0.6,10.8 L1.7,10.8 C1.7,10.6 1.6,10.4 1.6,10.3 L1.6,10.3 Z"></path>
                <path d="M0.4,7.8 L1.4,7.8 C1.4,7.5 1.5,7.3 1.5,7 L0.4,7 C0.5,7.2 0.5,7.5 0.4,7.8 L0.4,7.8 Z"></path>
                <path d="M15.2,5.1 C15.8,6.2 16.1,7.4 16.1,8.7 C16.1,12.8 12.8,16.1 8.7,16.1 C5.7,16.1 3.2,14.3 2,11.8 L1,11.8 C2.2,14.9 5.3,17.1 8.8,17.1 C13.4,17.1 17.2,13.3 17.2,8.7 C17.2,7.1 16.8,5.7 16,4.4 L15.2,5.1 L15.2,5.1 Z"></path>
            </g>
            <g transform="translate(0.000000, 1.000000)" sketch:type="MSShapeGroup" fill="#AC222A">
                <path d="M17.8,3.3 L17.5,3.3 L17.4,3.3 C17.2,3.3 17,3.4 16.8,3.4 L16.5,3.4 C16.4,3.3 16.3,3.3 16.2,3.3 C16.1,3.3 16.1,3.3 16.1,3.4 L16.1,3.6 C16.2,3.8 16.4,4.1 16.5,4.1 C16.3,5.2 14.2,6.2 11.1,6.6 C10,6.8 9.3,7.2 9,7.8 C8.7,8.5 9.2,9.3 9.3,9.4 C9.3,9.4 9.3,9.5 9.2,9.5 C9.2,9.5 9,9.7 9.1,9.9 C9.1,10 9.2,10.1 9.4,10.2 C9.5,10.2 9.6,10.3 9.8,10.3 L9.8,10.3 C10.1,10.3 10.4,10.1 10.4,10 L10.4,9.8 C10.3,9.7 10.3,9.7 10.4,9.7 C10.4,9.7 10.4,9.7 10.4,9.6 L10.4,9.4 C10.3,9.3 10.1,9.1 9.9,9.1 C9.8,9.1 9.8,9.1 9.7,9.2 C9.6,9 9.2,8.5 9.4,8 C9.6,7.5 10.2,7.2 11.2,7.1 L11.2,7.1 C11.5,7.3 12,7.6 12.2,8.3 C12.5,9.2 12.2,10.3 11.4,11.6 C11.2,11.7 11.1,11.8 10.9,12 C10.2,12.5 9.7,12.7 9.3,12.5 C9,12.3 8.9,11.7 8.9,11.5 C8.9,11.4 8.8,11.3 8.7,11.3 C8.7,11.3 8.7,11.3 8.6,11.3 L8.6,11.3 L8.6,11.3 C8.6,11.3 8.5,11.3 8.5,11.4 L6.6,13 C6.6,13 7.3,13.4 7.9,13.1 C8.2,13 8.5,12.7 8.7,12.3 C8.8,12.5 8.9,12.7 9.2,12.8 C9.3,12.9 9.5,12.9 9.6,12.9 C10,12.9 10.5,12.7 11.1,12.2 C13.3,10.6 15.4,9.7 16,9.6 C16,9.9 15.6,10.6 15.4,11 C15,11.8 14.8,12.1 15,12.3 L15.1,12.4 C15.1,12.4 15.1,12.5 15.3,12.6 C15.5,12.6 15.9,12.7 16.7,11.8 C17.5,10.9 17.3,10.4 17.3,10.4 C17.3,10.4 16.7,10.4 15.9,11.1 C16.4,10.1 16.6,9.6 16.5,9.4 C16.4,9.3 16.4,9.3 16.2,9.3 C15.9,9.3 15.4,9.5 14.7,9.8 C15.4,8.5 15.6,7.6 15.3,6.9 C15.2,6.6 14.9,6.4 14.8,6.3 C16.2,5.7 17,5 17.1,4.2 C17.2,4.2 17.4,4.1 17.6,4 C18.1,3.7 18.2,3.6 18.2,3.5 C18,3.3 17.9,3.3 17.8,3.3 L17.8,3.3 Z" id="Shape"></path>
                <ellipse id="Oval" cx="12.4" cy="5.1" rx="1.4" ry="1.1"></ellipse>
                <rect id="Rectangle" x="16" y="2" width="5.2" height="0.7"></rect>
                <g transform="translate(0.000000, 5.000000)" id="Shape">
                    <path d="M9.2,0.3 L2.9,0.3 C2.8,0.3 2.7,0.4 2.7,0.4 C2.7,0.5 2.8,0.5 2.9,0.5 L9.2,0.5 C9.3,0.5 9.4,0.4 9.4,0.4 C9.4,0.4 9.3,0.3 9.2,0.3 L9.2,0.3 Z"></path>
                    <path d="M7.7,2.2 C7.7,2.1 7.6,2.1 7.5,2.1 L0.3,2.1 C0.2,2.1 0.1,2.2 0.1,2.2 C0.1,2.3 0.2,2.3 0.3,2.3 L7.5,2.3 C7.6,2.4 7.7,2.3 7.7,2.2 L7.7,2.2 Z"></path>
                    <path d="M7.6,3.7 L2.8,3.7 C2.7,3.7 2.6,3.8 2.6,3.8 C2.6,3.9 2.7,3.9 2.8,3.9 L7.6,3.9 C7.7,3.9 7.8,3.8 7.8,3.8 C7.8,3.8 7.7,3.7 7.6,3.7 L7.6,3.7 Z"></path>
                    <path d="M7.4,5.1 L4,5.1 C3.9,5.1 3.8,5.2 3.8,5.2 C3.8,5.3 3.9,5.3 4,5.3 L7.4,5.3 C7.5,5.3 7.6,5.2 7.6,5.2 C7.5,5.2 7.5,5.1 7.4,5.1 L7.4,5.1 Z"></path>
                </g>
                <path d="M12.6,3.7 L12.6,3.7 C12.7,3.7 13.3,3.3 13.4,3 C13.4,2.8 13.2,2.6 13.2,2.8 C13.1,3.1 12.7,3.3 12.5,3.5 C12.4,3.3 12.3,3.1 12,3.1 C11.6,3.1 10.7,4.1 10.7,4.4 C10.7,4.6 11.1,5.2 11.1,5.2 C11.1,3.7 12.6,3.7 12.6,3.7 L12.6,3.7 Z" id="Shape"></path>
                <path d="M19.1,1.8 C19,1.8 19,1.7 19,1.7 C19,0.9 18.4,-0.1 17.5,-0.1 C17.4,-0.1 17.4,-0.2 17.4,-0.2 L17.5,-0.3 C18.3,-0.3 19.2,0.5 19.2,1.7 C19.3,1.7 19.2,1.8 19.1,1.8 L19.1,1.8 Z" id="Shape"></path>
                <path d="M18.2,1.8 C18.1,1.8 18.1,1.7 18.1,1.7 C18.1,1 17.5,0.4 16.9,0.4 C16.8,0.4 16.8,0.3 16.8,0.3 C16.8,0.2 16.9,0.2 16.9,0.2 C17.7,0.2 18.4,0.9 18.4,1.8 C18.4,1.7 18.3,1.8 18.2,1.8 L18.2,1.8 Z" id="Shape"></path>
                <path d="M17.3,1.8 C17.2,1.8 17.2,1.7 17.2,1.7 C17.2,1.2 16.8,0.9 16.4,0.9 C16.3,0.9 16.3,0.8 16.3,0.8 L16.4,0.7 C17,0.7 17.5,1.2 17.5,1.8 C17.5,1.7 17.4,1.8 17.3,1.8 L17.3,1.8 Z" id="Shape"></path>
            </g>
        </g>
    </g>
</svg>