<?xml version="1.0" encoding="UTF-8" standalone="no"?>
<svg width="32px" height="26px" viewBox="0 0 32 26" version="1.1" xmlns="http://www.w3.org/2000/svg" xmlns:xlink="http://www.w3.org/1999/xlink" xmlns:sketch="http://www.bohemiancoding.com/sketch/ns">
    <title>PI-logo-yellow-white</title>
    <description>Created with Sketch (http://www.bohemiancoding.com/sketch)</description>
    <defs></defs>
    <g id="Page-1" stroke="none" stroke-width="1" fill="none" fill-rule="evenodd" sketch:type="MSPage">
        <g id="Group" sketch:type="MSLayerGroup" transform="translate(6.000000, 0.000000)" fill="#FFE254">
            <path d="M2.2,8.9 C3.8,4.7 7.9,1.7 12.7,1.7 C14.6,1.7 16.4,2.2 18,3 L19.2,1.8 C17.3,0.7 15.1,0.1 12.7,0.1 C7,0.1 2.2,3.8 0.5,8.9 L2.2,8.9 L2.2,8.9 Z" id="Shape" sketch:type="MSShapeGroup"></path>
            <path d="M1.5,13 L-0.1,13 L-0.1,14 L1.5,14 L1.5,13 L1.5,13 Z" id="Shape" sketch:type="MSShapeGroup"></path>
            <path d="M1.8,15.4 L0.2,15.4 C0.3,15.7 0.3,15.9 0.4,16.2 L2,16.2 C1.9,16 1.8,15.7 1.8,15.4 L1.8,15.4 Z" id="Shape" sketch:type="MSShapeGroup"></path>
            <path d="M0,11.6 L1.6,11.6 C1.7,11.2 1.7,10.8 1.8,10.4 L0.2,10.4 C0.1,10.8 0,11.2 0,11.6 L0,11.6 Z" id="Shape" sketch:type="MSShapeGroup"></path>
            <path d="M22.6,7.5 C23.5,9.1 24,11 24,12.9 C24,19.1 18.9,24.2 12.7,24.2 C8.2,24.2 4.2,21.5 2.5,17.6 L0.8,17.6 C2.7,22.4 7.3,25.7 12.8,25.7 C19.9,25.7 25.7,19.9 25.7,12.8 C25.7,10.4 25,8.2 23.9,6.2 L22.6,7.5 L22.6,7.5 Z" id="Shape" sketch:type="MSShapeGroup"></path>
        </g>
        <g id="Group" sketch:type="MSLayerGroup" transform="translate(1.000000, 1.000000)" fill="#FFFFFF">
            <path d="M26.9,5.3 L26.5,5.3 L26.3,5.3 C26.1,5.3 25.7,5.4 25.4,5.4 C25.2,5.4 25.1,5.4 25,5.3 C24.8,5.2 24.7,5.2 24.6,5.2 C24.5,5.2 24.4,5.2 24.4,5.3 C24.3,5.4 24.4,5.6 24.5,5.7 C24.7,6 25,6.4 25.1,6.5 C24.7,8.2 21.7,9.7 16.9,10.4 C15.1,10.7 14.1,11.3 13.7,12.2 C13.3,13.3 14,14.4 14.2,14.7 L14.1,14.8 C14.1,14.9 13.8,15.1 13.9,15.4 C13.9,15.6 14.1,15.7 14.3,15.8 C14.5,15.9 14.7,15.9 14.8,15.9 L14.8,15.9 C15.3,15.9 15.7,15.6 15.8,15.4 L15.8,15.2 C15.7,15.1 15.7,15.1 15.8,15 L15.8,14.9 C15.8,14.8 15.8,14.7 15.7,14.6 C15.6,14.4 15.3,14.2 15,14.2 C14.9,14.2 14.8,14.2 14.6,14.3 C14.4,14.1 13.9,13.2 14.2,12.5 C14.5,11.8 15.4,11.3 16.9,11.1 L16.9,11.1 C17.4,11.3 18.1,11.9 18.5,12.9 C18.9,14.2 18.5,15.9 17.2,17.9 C16.9,18.1 16.7,18.3 16.4,18.5 C15.3,19.3 14.5,19.6 14,19.3 C13.5,19 13.4,18.1 13.4,17.8 C13.4,17.6 13.3,17.5 13.1,17.5 L13,17.5 L13,17.5 L13,17.5 L12.9,17.6 L9.9,20.1 C9.9,20.1 10.9,20.7 11.9,20.3 C12.4,20.1 12.9,19.6 13.1,19.1 C13.2,19.4 13.5,19.7 13.8,19.9 C14,20 14.2,20.1 14.5,20.1 C15.1,20.1 15.9,19.8 16.8,19.1 C20.2,16.6 23.4,15.2 24.3,15.1 C24.2,15.5 23.7,16.6 23.4,17.2 C22.7,18.5 22.5,18.9 22.8,19.2 L22.9,19.4 C22.9,19.5 23,19.6 23.2,19.7 C23.5,19.8 24.1,19.8 25.3,18.4 C26.5,17 26.2,16.3 26.2,16.3 C26.2,16.3 25.4,16.2 24,17.4 C24.8,15.8 25.1,15.1 24.9,14.7 C24.8,14.6 24.7,14.5 24.5,14.5 C24.1,14.5 23.3,14.8 22.2,15.3 C23.2,13.4 23.5,11.9 23.1,10.9 C22.9,10.4 22.5,10.2 22.3,10 C24.4,9.1 25.6,8.1 25.8,6.8 C26,6.7 26.3,6.7 26.5,6.5 C27.3,6 27.5,5.9 27.4,5.7 C27.3,5.3 27.1,5.3 26.9,5.3 L26.9,5.3 Z" id="Shape" sketch:type="MSShapeGroup"></path>
            <ellipse id="Oval" sketch:type="MSShapeGroup" cx="19.1" cy="7.7" rx="2.1" ry="1.7"></ellipse>
            <rect id="Rectangle" sketch:type="MSShapeGroup" x="23" y="4" width="8" height="1.1"></rect>
            <g transform="translate(0.000000, 8.000000)" id="Shape" sketch:type="MSShapeGroup">
                <path d="M13.8,0.4 L4.2,0.4 C4.1,0.4 3.9,0.5 3.9,0.6 C3.9,0.7 4,0.8 4.2,0.8 L13.8,0.8 C13.9,0.8 14.1,0.7 14.1,0.6 C14.1,0.5 14,0.4 13.8,0.4 L13.8,0.4 Z"></path>
                <path d="M11.5,3.3 C11.5,3.2 11.4,3.1 11.2,3.1 L0.2,3.1 C0.1,3.1 -0.1,3.2 -0.1,3.3 C-0.1,3.4 0,3.5 0.2,3.5 L11.2,3.5 C11.4,3.5 11.5,3.4 11.5,3.3 L11.5,3.3 Z"></path>
                <path d="M11.4,5.5 L4,5.5 C3.9,5.5 3.7,5.6 3.7,5.7 C3.7,5.8 3.8,5.9 4,5.9 L11.4,5.9 C11.5,5.9 11.7,5.8 11.7,5.7 C11.7,5.6 11.6,5.5 11.4,5.5 L11.4,5.5 Z"></path>
                <path d="M11,7.7 L5.8,7.7 C5.7,7.7 5.5,7.8 5.5,7.9 C5.5,8 5.6,8.1 5.8,8.1 L11,8.1 C11.1,8.1 11.3,8 11.3,7.9 C11.2,7.8 11.1,7.7 11,7.7 L11,7.7 Z"></path>
            </g>
            <path d="M19,5.9 L19,5.9 C19.1,5.9 20.1,5.3 20.2,4.8 C20.2,4.5 19.9,4.2 19.8,4.4 C19.6,4.8 19.1,5.2 18.8,5.4 C18.7,5.1 18.4,4.8 18.1,4.8 C17.5,4.8 16.1,6.4 16.1,6.7 C16.1,7 16.7,8 16.7,8 C16.8,6 19,5.9 19,5.9 L19,5.9 Z" id="Shape" sketch:type="MSShapeGroup"></path>
            <path d="M29,2.9 C28.9,2.9 28.8,2.8 28.8,2.7 C28.8,1.4 27.9,2.84217094e-14 26.5,2.84217094e-14 C26.4,2.84217094e-14 26.3,-0.1 26.3,-0.2 C26.3,-0.3 26.4,-0.4 26.5,-0.4 C27.8,-0.4 29.2,0.8 29.2,2.7 C29.2,2.9 29.1,2.9 29,2.9 L29,2.9 Z" id="Shape" sketch:type="MSShapeGroup"></path>
            <path d="M27.6,2.9 C27.5,2.9 27.4,2.8 27.4,2.7 C27.4,1.6 26.5,0.7 25.5,0.7 C25.4,0.7 25.3,0.6 25.3,0.5 C25.3,0.4 25.4,0.3 25.5,0.3 C26.7,0.3 27.7,1.4 27.7,2.7 C27.8,2.9 27.7,2.9 27.6,2.9 L27.6,2.9 Z" id="Shape" sketch:type="MSShapeGroup"></path>
            <path d="M26.2,2.9 C26.1,2.9 26,2.8 26,2.7 C26,2 25.4,1.4 24.7,1.4 C24.6,1.4 24.5,1.3 24.5,1.2 C24.5,1.1 24.6,1 24.7,1 C25.6,1 26.3,1.7 26.3,2.6 C26.4,2.9 26.3,2.9 26.2,2.9 L26.2,2.9 Z" id="Shape" sketch:type="MSShapeGroup"></path>
        </g>
    </g>
</svg>