<?xml version="1.0" encoding="UTF-8" standalone="no"?>
<svg width="42px" height="42px" viewBox="0 0 42 42" version="1.1" xmlns="http://www.w3.org/2000/svg" xmlns:xlink="http://www.w3.org/1999/xlink" xmlns:sketch="http://www.bohemiancoding.com/sketch/ns">
    <title>pizza-red</title>
    <description>Created with Sketch (http://www.bohemiancoding.com/sketch)</description>
    <defs></defs>
    <g id="Page-1" stroke="none" stroke-width="1" fill="none" fill-rule="evenodd" sketch:type="MSPage">
        <g id="Group" sketch:type="MSLayerGroup" transform="translate(1.000000, 1.000000)" fill="#AC222A">
            <g id="Shape" sketch:type="MSShapeGroup">
                <path d="M19.9,1.4 L19.9,-0.4 C8.8,-0.4 -0.3,8.6 -0.3,19.8 L1.3,19.8 C1.7,9.7 9.8,1.5 19.9,1.4 L19.9,1.4 Z"></path>
                <path d="M2.3,19.8 L19.9,19.8 L19.9,2.3 C10.3,2.5 2.6,10.2 2.3,19.8 L2.3,19.8 Z M8.5,17.8 C7.5,17.8 6.6,16.9 6.6,15.9 C6.6,14.9 7.5,14 8.5,14 C9.6,14 10.4,14.9 10.4,15.9 C10.4,16.9 9.5,17.8 8.5,17.8 L8.5,17.8 Z M11.9,9.1 C11.9,8.1 12.8,7.2 13.8,7.2 C14.8,7.2 15.7,8.1 15.7,9.1 C15.7,10.2 14.8,11 13.8,11 C12.8,11 11.9,10.1 11.9,9.1 L11.9,9.1 Z M15.7,17.1 C14.7,17.1 13.8,16.2 13.8,15.2 C13.8,14.2 14.7,13.3 15.7,13.3 C16.7,13.3 17.6,14.1 17.6,15.2 C17.6,16.3 16.8,17.1 15.7,17.1 L15.7,17.1 Z"></path>
            </g>
            <g transform="translate(20.000000, 0.000000)" id="Shape" sketch:type="MSShapeGroup">
                <path d="M18.9,19.8 L20.7,19.8 C20.7,8.7 11.7,-0.4 0.5,-0.4 L0.5,1.2 C10.6,1.5 18.7,9.6 18.9,19.8 L18.9,19.8 Z"></path>
                <path d="M0.5,2.2 L0.5,19.8 L18,19.8 C17.8,10.2 10.1,2.4 0.5,2.2 L0.5,2.2 Z M5.1,16.6 C4.1,16.6 3.2,15.7 3.2,14.7 C3.2,13.7 4.1,12.8 5.1,12.8 C6.2,12.8 7,13.7 7,14.7 C7,15.8 6.2,16.6 5.1,16.6 L5.1,16.6 Z M5.6,10 C4.6,10 3.7,9.1 3.7,8.1 C3.7,7.1 4.6,6.2 5.6,6.2 C6.6,6.2 7.5,7.1 7.5,8.1 C7.5,9.2 6.7,10 5.6,10 L5.6,10 Z M11.8,16.6 C10.8,16.6 9.9,15.7 9.9,14.7 C9.9,13.7 10.8,12.8 11.8,12.8 C12.9,12.8 13.7,13.7 13.7,14.7 C13.7,15.8 12.8,16.6 11.8,16.6 L11.8,16.6 Z"></path>
            </g>
            <g transform="translate(0.000000, 20.000000)" id="Shape" sketch:type="MSShapeGroup">
                <path d="M1.5,0.4 L-0.3,0.4 C-0.3,11.5 8.7,20.6 19.9,20.6 L19.9,19 C9.8,18.7 1.7,10.5 1.5,0.4 L1.5,0.4 Z"></path>
                <path d="M2.5,0.4 C2.7,10 10.4,17.7 19.9,18 L19.9,0.4 L2.5,0.4 L2.5,0.4 Z M9.2,8.7 C8.2,8.7 7.3,7.8 7.3,6.8 C7.3,5.8 8.2,4.9 9.2,4.9 C10.2,4.9 11.1,5.8 11.1,6.8 C11.1,7.8 10.3,8.7 9.2,8.7 L9.2,8.7 Z M15.7,14.3 C14.7,14.3 13.8,13.4 13.8,12.4 C13.8,11.4 14.7,10.5 15.7,10.5 C16.7,10.5 17.6,11.4 17.6,12.4 C17.6,13.4 16.8,14.3 15.7,14.3 L15.7,14.3 Z M16.9,5.6 C15.9,5.6 15,4.7 15,3.7 C15,2.7 15.9,1.8 16.9,1.8 C17.9,1.8 18.8,2.7 18.8,3.7 C18.8,4.8 18,5.6 16.9,5.6 L16.9,5.6 Z"></path>
            </g>
            <g transform="translate(20.000000, 20.000000)" id="Shape" sketch:type="MSShapeGroup">
                <path d="M0.5,18.8 L0.5,20.6 C11.6,20.6 20.7,11.6 20.7,0.4 L19,0.4 C18.8,10.5 10.6,18.6 0.5,18.8 L0.5,18.8 Z"></path>
                <path d="M0.5,0.4 L0.5,17.8 C10.1,17.6 17.8,9.9 18.1,0.4 L0.5,0.4 L0.5,0.4 Z M4.5,14.3 C3.5,14.3 2.6,13.4 2.6,12.4 C2.6,11.4 3.5,10.5 4.5,10.5 C5.6,10.5 6.4,11.4 6.4,12.4 C6.4,13.4 5.6,14.3 4.5,14.3 L4.5,14.3 Z M4.5,5.2 C3.5,5.2 2.6,4.3 2.6,3.3 C2.6,2.3 3.5,1.4 4.5,1.4 C5.6,1.4 6.4,2.3 6.4,3.3 C6.4,4.3 5.6,5.2 4.5,5.2 L4.5,5.2 Z M10.6,8.3 C9.6,8.3 8.7,7.4 8.7,6.4 C8.7,5.4 9.6,4.5 10.6,4.5 C11.6,4.5 12.5,5.3 12.5,6.4 C12.5,7.5 11.6,8.3 10.6,8.3 L10.6,8.3 Z"></path>
            </g>
        </g>
    </g>
</svg>