<?xml version="1.0" standalone="no"?>
<!DOCTYPE svg PUBLIC "-//W3C//DTD SVG 1.1//EN" "http://www.w3.org/Graphics/SVG/1.1/DTD/svg11.dtd">
<svg width="100%" height="100%" viewBox="0 0 50 49" version="1.1" xmlns="http://www.w3.org/2000/svg" xmlns:xlink="http://www.w3.org/1999/xlink" xml:space="preserve" style="fill-rule:evenodd;clip-rule:evenodd;stroke-linejoin:round;stroke-miterlimit:1.41421;">
    <path d="M25.1863,33.3698C20.32,33.3698 16.3668,29.4205 16.3668,24.5502C16.3668,19.68 20.32,15.7346 25.1863,15.7346C30.0527,15.7346 34.002,19.68 34.002,24.5502C34.002,29.4205 30.0527,33.3698 25.1863,33.3698M43.8322,23.9102C43.7463,21.5766 43.2312,19.3483 42.3532,17.3112L47.5707,13.1512L41.4361,5.44781L36.1951,9.62732C34.3805,8.30049 32.3317,7.29756 30.1151,6.69268L30.1151,0L20.2615,0L20.2615,6.69268C18.0449,7.29756 15.9844,8.30049 14.1737,9.62732L8.94049,5.45171L2.80195,13.1512L8.01951,17.3112C7.13366,19.3561 6.63024,21.5766 6.53659,23.9102L0,25.4049L2.19317,35.0049L8.69854,33.518C9.77951,35.5317 11.2273,37.3151 12.9327,38.802L10.0332,44.8351L18.9034,49.1044L21.8068,43.0751C22.9034,43.278 24.0273,43.399 25.1863,43.399C26.3493,43.399 27.4615,43.278 28.5659,43.0751L31.4693,49.1044L40.3434,44.8351L37.4361,38.798C39.1454,37.3151 40.5971,35.5317 41.6663,33.518L48.1795,35.0049L50.3727,25.4049L43.8322,23.9102Z" style="fill:white;fill-rule:nonzero;"/>
</svg>
