<?xml version="1.0" standalone="no"?>
<!DOCTYPE svg PUBLIC "-//W3C//DTD SVG 1.1//EN" "http://www.w3.org/Graphics/SVG/1.1/DTD/svg11.dtd">
<svg width="100%" height="100%" viewBox="0 0 439 277" version="1.1" xmlns="http://www.w3.org/2000/svg" xmlns:xlink="http://www.w3.org/1999/xlink" xml:space="preserve" style="fill-rule:evenodd;clip-rule:evenodd;stroke-linejoin:round;stroke-miterlimit:1.41421;">
    <path d="M132.302,64.1245L103.424,64.1245C99.6656,64.1245 96.6217,67.1684 96.6217,70.9264L96.6217,146.911C96.6217,150.673 99.6656,153.721 103.424,153.721L132.302,153.721C136.06,153.721 139.1,150.673 139.1,146.911L139.1,70.9264C139.1,67.1684 136.06,64.1245 132.302,64.1245" style="fill:white;fill-rule:nonzero;"/>
    <path d="M103.424,65.2753C100.306,65.2753 97.7733,67.808 97.7733,70.9221L97.7733,146.91C97.7733,150.028 100.306,152.565 103.424,152.565L132.298,152.565C135.416,152.565 137.949,150.028 137.949,146.91L137.949,70.9221C137.949,67.808 135.416,65.2753 132.298,65.2753L103.424,65.2753ZM132.298,154.868L103.424,154.868C99.0377,154.868 95.4708,151.301 95.4708,146.91L95.4708,70.9221C95.4708,66.5397 99.0377,62.9729 103.424,62.9729L132.298,62.9729C136.684,62.9729 140.247,66.5397 140.247,70.9221L140.247,146.91C140.247,151.301 136.684,154.868 132.298,154.868" style="fill:rgb(129,26,32);fill-rule:nonzero;"/>
    <rect x="125.119" y="62.4312" width="6.82537" height="0.440976" style="fill:white;fill-rule:nonzero;"/>
    <rect x="123.972" y="61.2839" width="9.12781" height="2.74341" style="fill:rgb(129,26,32);fill-rule:nonzero;"/>
    <rect x="99.8939" y="76.9873" width="36.1483" height="64.0781" style="fill:rgb(129,26,32);fill-rule:nonzero;"/>
    <g>
        <g opacity="0.300003">
            <path d="M133.193,109.795C133.193,118.205 126.372,125.022 117.962,125.022C109.548,125.022 102.731,118.205 102.731,109.795C102.731,101.381 109.548,94.5639 117.962,94.5639C126.372,94.5639 133.193,101.381 133.193,109.795" style="fill:white;fill-rule:nonzero;"/>
        </g>
    </g>
    <path d="M133.193,107.878C133.193,116.292 126.372,123.109 117.962,123.109C109.548,123.109 102.731,116.292 102.731,107.878C102.731,99.4685 109.548,92.647 117.962,92.647C126.372,92.647 133.193,99.4685 133.193,107.878" style="fill:white;fill-rule:nonzero;"/>
    <path d="M131.961,107.878C131.961,115.613 125.689,121.876 117.963,121.876C110.232,121.876 103.964,115.613 103.964,107.878C103.964,100.151 110.232,93.8802 117.963,93.8802C125.689,93.8802 131.961,100.151 131.961,107.878" style="fill:white;fill-rule:nonzero;"/>
    <path d="M234.667,2.848L205.788,2.848C202.03,2.848 198.987,5.8919 198.987,9.64605L198.987,85.6343C198.987,89.3924 202.03,92.4402 205.788,92.4402L234.667,92.4402C238.425,92.4402 241.465,89.3924 241.465,85.6343L241.465,9.64605C241.465,5.8919 238.425,2.848 234.667,2.848" style="fill:white;fill-rule:nonzero;"/>
    <path d="M205.789,3.99883C202.675,3.99883 200.142,6.53151 200.142,9.64566L200.142,85.634C200.142,88.752 202.675,91.2886 205.789,91.2886L234.667,91.2886C237.777,91.2886 240.314,88.752 240.314,85.634L240.314,9.64566C240.314,6.53151 237.777,3.99883 234.667,3.99883L205.789,3.99883ZM234.667,93.591L205.789,93.591C201.403,93.591 197.84,90.0203 197.84,85.634L197.84,9.64566C197.84,5.26322 201.403,1.69639 205.789,1.69639L234.667,1.69639C239.045,1.69639 242.612,5.26322 242.612,9.64566L242.612,85.634C242.612,90.0203 239.045,93.591 234.667,93.591" style="fill:rgb(129,26,32);fill-rule:nonzero;"/>
    <rect x="227.488" y="1.15122" width="6.82537" height="0.444878" style="fill:white;fill-rule:nonzero;"/>
    <rect x="226.337" y="0" width="9.12781" height="2.74732" style="fill:rgb(129,26,32);fill-rule:nonzero;"/>
    <rect x="202.259" y="15.7112" width="36.1483" height="64.0781" style="fill:rgb(129,26,32);fill-rule:nonzero;"/>
    <g>
        <g opacity="0.300003">
            <path d="M235.558,48.5147C235.558,56.9284 228.737,63.746 220.327,63.746C211.913,63.746 205.096,56.9284 205.096,48.5147C205.096,40.105 211.913,33.2835 220.327,33.2835C228.737,33.2835 235.558,40.105 235.558,48.5147" style="fill:white;fill-rule:nonzero;"/>
        </g>
    </g>
    <path d="M235.558,46.6018C235.558,55.0115 228.737,61.833 220.327,61.833C211.913,61.833 205.096,55.0115 205.096,46.6018C205.096,38.1881 211.913,31.3705 220.327,31.3705C228.737,31.3705 235.558,38.1881 235.558,46.6018" style="fill:white;fill-rule:nonzero;"/>
    <path d="M234.325,46.6018C234.325,54.3286 228.054,60.5998 220.324,60.5998C212.597,60.5998 206.329,54.3286 206.329,46.6018C206.329,38.8749 212.597,32.6037 220.324,32.6037C228.054,32.6037 234.325,38.8749 234.325,46.6018" style="fill:white;fill-rule:nonzero;"/>
    <path d="M334.727,64.1245L305.849,64.1245C302.091,64.1245 299.047,67.1684 299.047,70.9264L299.047,146.911C299.047,150.673 302.091,153.721 305.849,153.721L334.727,153.721C338.485,153.721 341.525,150.673 341.525,146.911L341.525,70.9264C341.525,67.1684 338.485,64.1245 334.727,64.1245" style="fill:white;fill-rule:nonzero;"/>
    <path d="M305.85,65.2753C302.732,65.2753 300.199,67.808 300.199,70.9221L300.199,146.91C300.199,150.028 302.732,152.565 305.85,152.565L334.728,152.565C337.838,152.565 340.371,150.028 340.371,146.91L340.371,70.9221C340.371,67.808 337.838,65.2753 334.728,65.2753L305.85,65.2753ZM334.728,154.868L305.85,154.868C301.463,154.868 297.897,151.301 297.897,146.91L297.897,70.9221C297.897,66.5397 301.463,62.9729 305.85,62.9729L334.728,62.9729C339.11,62.9729 342.677,66.5397 342.677,70.9221L342.677,146.91C342.677,151.301 339.11,154.868 334.728,154.868" style="fill:rgb(129,26,32);fill-rule:nonzero;"/>
    <rect x="327.547" y="62.4312" width="6.82927" height="0.440976" style="fill:white;fill-rule:nonzero;"/>
    <rect x="326.395" y="61.2839" width="9.12781" height="2.74341" style="fill:rgb(129,26,32);fill-rule:nonzero;"/>
    <rect x="302.321" y="76.9873" width="36.1483" height="64.0781" style="fill:rgb(129,26,32);fill-rule:nonzero;"/>
    <g>
        <g opacity="0.300003">
            <path d="M335.619,109.795C335.619,118.205 328.798,125.022 320.388,125.022C311.974,125.022 305.153,118.205 305.153,109.795C305.153,101.381 311.974,94.5639 320.388,94.5639C328.798,94.5639 335.619,101.381 335.619,109.795" style="fill:white;fill-rule:nonzero;"/>
        </g>
    </g>
    <path d="M335.619,107.878C335.619,116.292 328.798,123.109 320.388,123.109C311.974,123.109 305.153,116.292 305.153,107.878C305.153,99.4685 311.974,92.647 320.388,92.647C328.798,92.647 335.619,99.4685 335.619,107.878" style="fill:white;fill-rule:nonzero;"/>
    <path d="M334.384,107.878C334.384,115.613 328.117,121.876 320.386,121.876C312.656,121.876 306.388,115.613 306.388,107.878C306.388,100.151 312.656,93.8802 320.386,93.8802C328.117,93.8802 334.384,100.151 334.384,107.878" style="fill:white;fill-rule:nonzero;"/>
    <path d="M36.8308,152.268L7.95278,152.268C4.19473,152.268 1.15083,155.312 1.15083,159.07L1.15083,235.055C1.15083,238.817 4.19473,241.865 7.95278,241.865L36.8308,241.865C40.5889,241.865 43.6289,238.817 43.6289,235.055L43.6289,159.07C43.6289,155.312 40.5889,152.268 36.8308,152.268" style="fill:white;fill-rule:nonzero;"/>
    <path d="M7.95317,153.423C4.83902,153.423 2.30634,155.952 2.30634,159.066L2.30634,235.058C2.30634,238.176 4.83902,240.713 7.95317,240.713L36.8273,240.713C39.9415,240.713 42.4741,238.176 42.4741,235.058L42.4741,159.066C42.4741,155.952 39.9415,153.423 36.8273,153.423L7.95317,153.423ZM36.8273,243.015L7.95317,243.015C3.56683,243.015 0,239.445 0,235.058L0,159.066C0,154.684 3.56683,151.121 7.95317,151.121L36.8273,151.121C41.2098,151.121 44.7766,154.684 44.7766,159.066L44.7766,235.058C44.7766,239.445 41.2098,243.015 36.8273,243.015" style="fill:rgb(129,26,32);fill-rule:nonzero;"/>
    <rect x="29.65" y="150.576" width="6.82537" height="0.440976" style="fill:white;fill-rule:nonzero;"/>
    <rect x="28.4987" y="149.424" width="9.12781" height="2.74341" style="fill:rgb(129,26,32);fill-rule:nonzero;"/>
    <rect x="4.42459" y="165.132" width="36.1483" height="64.0781" style="fill:rgb(129,26,32);fill-rule:nonzero;"/>
    <g>
        <g opacity="0.300003">
            <path d="M37.7229,197.94C37.7229,206.349 30.9054,213.171 22.4917,213.171C14.078,213.171 7.26049,206.349 7.26049,197.94C7.26049,189.526 14.078,182.708 22.4917,182.708C30.9054,182.708 37.7229,189.526 37.7229,197.94" style="fill:white;fill-rule:nonzero;"/>
        </g>
    </g>
    <path d="M37.7229,196.022C37.7229,204.436 30.9054,211.253 22.4917,211.253C14.078,211.253 7.26049,204.436 7.26049,196.022C7.26049,187.612 14.078,180.791 22.4917,180.791C30.9054,180.791 37.7229,187.612 37.7229,196.022" style="fill:white;fill-rule:nonzero;"/>
    <path d="M36.4898,196.022C36.4898,203.757 30.2224,210.02 22.4917,210.02C14.761,210.02 8.49366,203.757 8.49366,196.022C8.49366,188.295 14.761,182.024 22.4917,182.024C30.2224,182.024 36.4898,188.295 36.4898,196.022" style="fill:white;fill-rule:nonzero;"/>
    <path d="M431.355,152.268L402.476,152.268C398.718,152.268 395.675,155.312 395.675,159.07L395.675,235.055C395.675,238.817 398.718,241.865 402.476,241.865L431.355,241.865C435.113,241.865 438.153,238.817 438.153,235.055L438.153,159.07C438.153,155.312 435.113,152.268 431.355,152.268" style="fill:white;fill-rule:nonzero;"/>
    <path d="M402.479,153.423C399.361,153.423 396.828,155.952 396.828,159.066L396.828,235.058C396.828,238.176 399.361,240.713 402.479,240.713L431.353,240.713C434.467,240.713 437,238.176 437,235.058L437,159.066C437,155.952 434.467,153.423 431.353,153.423L402.479,153.423ZM431.353,243.015L402.479,243.015C398.092,243.015 394.526,239.445 394.526,235.058L394.526,159.066C394.526,154.684 398.092,151.121 402.479,151.121L431.353,151.121C435.739,151.121 439.302,154.684 439.302,159.066L439.302,235.058C439.302,239.445 435.739,243.015 431.353,243.015" style="fill:rgb(129,26,32);fill-rule:nonzero;"/>
    <rect x="424.175" y="150.576" width="6.82537" height="0.440976" style="fill:white;fill-rule:nonzero;"/>
    <rect x="423.024" y="149.424" width="9.12781" height="2.74341" style="fill:rgb(129,26,32);fill-rule:nonzero;"/>
    <rect x="398.949" y="165.132" width="36.1483" height="64.0781" style="fill:rgb(129,26,32);fill-rule:nonzero;"/>
    <g>
        <g opacity="0.300003">
            <path d="M432.246,197.94C432.246,206.349 425.429,213.171 417.015,213.171C408.601,213.171 401.784,206.349 401.784,197.94C401.784,189.526 408.601,182.708 417.015,182.708C425.429,182.708 432.246,189.526 432.246,197.94" style="fill:white;fill-rule:nonzero;"/>
        </g>
    </g>
    <path d="M432.246,196.022C432.246,204.436 425.429,211.253 417.015,211.253C408.601,211.253 401.784,204.436 401.784,196.022C401.784,187.612 408.601,180.791 417.015,180.791C425.429,180.791 432.246,187.612 432.246,196.022" style="fill:white;fill-rule:nonzero;"/>
    <path d="M431.013,196.022C431.013,203.757 424.746,210.02 417.015,210.02C409.285,210.02 403.017,203.757 403.017,196.022C403.017,188.295 409.285,182.024 417.015,182.024C424.746,182.024 431.013,188.295 431.013,196.022" style="fill:white;fill-rule:nonzero;"/>
    <path d="M68.4964,201.087C68.2779,201.087 68.0554,201.056 67.8369,200.994L63.4271,199.675C62.2096,199.312 61.5188,198.028 61.8818,196.81C62.2447,195.596 63.5247,194.89 64.7461,195.265L69.1559,196.58C70.3696,196.947 71.0603,198.231 70.7013,199.444C70.4008,200.443 69.4876,201.087 68.4964,201.087" style="fill:white;fill-rule:nonzero;"/>
    <path d="M87.6047,206.804C87.3901,206.804 87.1676,206.768 86.9491,206.706L77.392,203.849C76.1744,203.486 75.4837,202.203 75.8466,200.989C76.2096,199.764 77.4857,199.073 78.711,199.44L88.2642,202.296C89.4818,202.659 90.1725,203.943 89.8096,205.157C89.5091,206.16 88.5959,206.804 87.6047,206.804M106.711,212.517C106.496,212.517 106.274,212.485 106.052,212.419L96.4983,209.559C95.2847,209.192 94.594,207.912 94.9569,206.698C95.3198,205.481 96.5842,204.79 97.8213,205.149L107.374,208.009C108.588,208.376 109.283,209.66 108.916,210.874C108.619,211.873 107.702,212.517 106.711,212.517M125.821,218.226C125.607,218.226 125.384,218.195 125.166,218.128L115.609,215.276C114.391,214.909 113.7,213.625 114.063,212.411C114.426,211.194 115.702,210.499 116.928,210.862L126.481,213.723C127.698,214.082 128.389,215.365 128.026,216.583C127.73,217.582 126.816,218.226 125.821,218.226M144.932,223.939C144.717,223.939 144.494,223.904 144.272,223.838L134.719,220.985C133.501,220.622 132.811,219.338 133.173,218.121C133.536,216.907 134.812,216.208 136.038,216.575L145.591,219.428C146.809,219.791 147.499,221.075 147.136,222.292C146.84,223.295 145.927,223.939 144.932,223.939M164.042,229.652C163.823,229.652 163.601,229.621 163.382,229.555L153.829,226.702C152.612,226.335 151.921,225.051 152.284,223.834C152.647,222.616 153.923,221.922 155.144,222.288L164.697,225.141C165.919,225.508 166.61,226.792 166.243,228.009C165.946,229.004 165.033,229.652 164.042,229.652" style="fill:white;fill-rule:nonzero;"/>
    <path d="M178.003,233.824C177.788,233.824 177.562,233.792 177.343,233.73L172.937,232.411C171.716,232.048 171.025,230.764 171.392,229.543C171.751,228.325 173.031,227.63 174.252,227.997L178.662,229.316C179.88,229.679 180.571,230.967 180.204,232.181C179.911,233.18 178.994,233.824 178.003,233.824" style="fill:white;fill-rule:nonzero;"/>
    <path d="M154.291,162.692C153.596,162.692 152.91,162.379 152.457,161.782L149.671,158.114C148.906,157.099 149.101,155.659 150.116,154.891C151.122,154.13 152.566,154.321 153.335,155.332L156.121,159C156.886,160.014 156.691,161.454 155.676,162.223C155.263,162.535 154.775,162.692 154.291,162.692" style="fill:white;fill-rule:nonzero;"/>
    <path d="M164.439,176.064C163.745,176.064 163.058,175.752 162.605,175.155L157.532,168.47C156.763,167.456 156.958,166.012 157.973,165.243C158.984,164.478 160.428,164.673 161.196,165.688L166.27,172.373C167.038,173.383 166.839,174.827 165.829,175.596C165.411,175.908 164.923,176.064 164.439,176.064M174.59,189.434C173.895,189.434 173.208,189.122 172.756,188.521L167.682,181.836C166.914,180.821 167.109,179.381 168.123,178.609C169.142,177.848 170.578,178.043 171.347,179.054L176.42,185.739C177.189,186.753 176.994,188.193 175.979,188.966C175.561,189.278 175.074,189.434 174.59,189.434M184.744,202.804C184.049,202.804 183.362,202.484 182.906,201.887L177.829,195.206C177.064,194.199 177.259,192.751 178.274,191.982C179.284,191.225 180.724,191.413 181.497,192.423L186.57,199.108C187.339,200.115 187.144,201.563 186.129,202.328C185.716,202.644 185.228,202.804 184.744,202.804" style="fill:white;fill-rule:nonzero;"/>
    <path d="M192.601,213.149C191.906,213.149 191.22,212.837 190.767,212.236L187.984,208.575C187.216,207.564 187.411,206.121 188.421,205.352C189.432,204.587 190.876,204.774 191.645,205.793L194.427,209.457C195.2,210.46 195.001,211.912 193.99,212.677C193.577,212.993 193.085,213.149 192.601,213.149" style="fill:white;fill-rule:nonzero;"/>
    <path d="M218.22,112.059C216.948,112.059 215.918,111.029 215.918,109.756L215.918,105.159C215.918,103.887 216.948,102.857 218.22,102.857C219.492,102.857 220.519,103.887 220.519,105.159L220.519,109.756C220.519,111.029 219.492,112.059 218.22,112.059" style="fill:white;fill-rule:nonzero;"/>
    <path d="M218.22,131.228C216.948,131.228 215.918,130.194 215.918,128.926L215.918,119.341C215.918,118.073 216.948,117.043 218.22,117.043C219.492,117.043 220.519,118.073 220.519,119.341L220.519,128.926C220.519,130.194 219.492,131.228 218.22,131.228M218.22,150.401C216.948,150.401 215.918,149.367 215.918,148.098L215.918,138.51C215.918,137.242 216.948,136.208 218.22,136.208C219.492,136.208 220.519,137.242 220.519,138.51L220.519,148.098C220.519,149.367 219.492,150.401 218.22,150.401M218.22,169.573C216.948,169.573 215.918,168.543 215.918,167.267L215.918,157.683C215.918,156.411 216.948,155.38 218.22,155.38C219.492,155.38 220.519,156.411 220.519,157.683L220.519,167.267C220.519,168.543 219.492,169.573 218.22,169.573M218.22,188.742C216.948,188.742 215.918,187.712 215.918,186.44L215.918,176.855C215.918,175.587 216.948,174.557 218.22,174.557C219.492,174.557 220.519,175.587 220.519,176.855L220.519,186.44C220.519,187.712 219.492,188.742 218.22,188.742" style="fill:white;fill-rule:nonzero;"/>
    <path d="M218.22,202.928C216.948,202.928 215.918,201.898 215.918,200.626L215.918,196.025C215.918,194.756 216.948,193.726 218.22,193.726C219.492,193.726 220.519,194.756 220.519,196.025L220.519,200.626C220.519,201.898 219.492,202.928 218.22,202.928" style="fill:white;fill-rule:nonzero;"/>
    <path d="M281.002,162.695C280.518,162.695 280.03,162.547 279.617,162.227C278.602,161.466 278.403,160.014 279.168,159.004L281.95,155.332C282.715,154.329 284.163,154.118 285.17,154.891C286.185,155.655 286.384,157.099 285.619,158.114L282.84,161.786C282.388,162.379 281.697,162.695 281.002,162.695" style="fill:white;fill-rule:nonzero;"/>
    <path d="M270.612,176.411C270.128,176.411 269.64,176.259 269.222,175.939C268.212,175.174 268.012,173.73 268.781,172.72L273.975,165.863C274.744,164.852 276.184,164.645 277.203,165.422C278.21,166.187 278.412,167.631 277.644,168.642L272.446,175.498C271.997,176.091 271.306,176.411 270.612,176.411M260.219,190.132C259.735,190.132 259.248,189.98 258.834,189.66C257.823,188.895 257.62,187.447 258.389,186.433L263.583,179.576C264.352,178.565 265.796,178.359 266.803,179.131C267.817,179.896 268.016,181.344 267.252,182.355L262.057,189.215C261.605,189.812 260.918,190.132 260.219,190.132M249.827,203.842C249.343,203.842 248.855,203.689 248.438,203.369C247.427,202.604 247.228,201.161 247.997,200.15L253.195,193.293C253.96,192.286 255.4,192.076 256.418,192.852C257.429,193.617 257.628,195.057 256.859,196.072L251.661,202.928C251.212,203.522 250.522,203.842 249.827,203.842" style="fill:white;fill-rule:nonzero;"/>
    <path d="M241.852,214.364C241.368,214.364 240.88,214.212 240.463,213.896C239.452,213.127 239.253,211.687 240.022,210.673L242.8,207.004C243.565,205.994 245.009,205.791 246.024,206.564C247.035,207.332 247.234,208.772 246.465,209.787L243.686,213.455C243.234,214.044 242.547,214.364 241.852,214.364" style="fill:white;fill-rule:nonzero;"/>
    <path d="M370.221,201.015C369.214,201.015 368.289,200.347 368.008,199.333C367.661,198.107 368.375,196.839 369.6,196.496L374.034,195.251C375.282,194.896 376.531,195.629 376.871,196.847C377.214,198.072 376.5,199.34 375.278,199.684L370.841,200.929C370.635,200.987 370.424,201.015 370.221,201.015" style="fill:white;fill-rule:nonzero;"/>
    <path d="M353.211,205.775C352.204,205.775 351.283,205.108 350.998,204.093C350.654,202.871 351.369,201.599 352.59,201.26L361.093,198.875C362.334,198.528 363.591,199.254 363.931,200.471C364.274,201.697 363.556,202.965 362.338,203.308L353.831,205.685C353.628,205.748 353.413,205.775 353.211,205.775M336.2,210.544C335.193,210.544 334.268,209.876 333.987,208.862C333.64,207.636 334.354,206.364 335.579,206.021L344.083,203.64C345.324,203.289 346.58,204.019 346.92,205.232C347.267,206.458 346.553,207.73 345.328,208.069L336.82,210.454C336.613,210.516 336.403,210.544 336.2,210.544M319.189,215.301C318.182,215.301 317.261,214.637 316.976,213.623C316.633,212.397 317.347,211.125 318.569,210.786L327.072,208.405C328.313,208.054 329.57,208.784 329.909,209.997C330.252,211.223 329.538,212.495 328.317,212.834L319.81,215.215C319.607,215.273 319.392,215.301 319.189,215.301M302.182,220.069C301.175,220.069 300.254,219.402 299.97,218.388C299.626,217.162 300.336,215.894 301.562,215.55L310.069,213.17C311.318,212.819 312.563,213.545 312.906,214.762C313.25,215.984 312.535,217.256 311.31,217.595L302.807,219.984C302.6,220.042 302.389,220.069 302.182,220.069M285.172,224.83C284.169,224.83 283.244,224.163 282.959,223.148C282.615,221.927 283.33,220.655 284.555,220.315L293.058,217.931C294.264,217.58 295.556,218.306 295.892,219.523C296.235,220.752 295.525,222.021 294.299,222.364L285.792,224.741C285.585,224.803 285.378,224.83 285.172,224.83M268.161,229.595C267.158,229.595 266.233,228.924 265.948,227.913C265.605,226.684 266.319,225.416 267.544,225.072L276.048,222.696C277.253,222.348 278.541,223.067 278.885,224.288C279.228,225.513 278.514,226.786 277.289,227.125L268.781,229.506C268.578,229.564 268.368,229.595 268.161,229.595" style="fill:white;fill-rule:nonzero;"/>
    <path d="M255.228,233.218C254.222,233.218 253.297,232.546 253.016,231.528C252.672,230.31 253.39,229.042 254.612,228.699L259.041,227.458C260.259,227.106 261.539,227.832 261.878,229.058C262.222,230.279 261.504,231.547 260.282,231.891L255.849,233.128C255.642,233.186 255.435,233.218 255.228,233.218" style="fill:white;fill-rule:nonzero;"/>
    <path d="M216.98,215.721L216.98,212.919C199.372,212.919 185.1,227.191 185.1,244.795L187.684,244.795C188.113,228.845 200.999,216.026 216.98,215.721" style="fill:white;fill-rule:nonzero;"/>
    <path d="M210.309,240.603C208.65,240.603 207.308,239.257 207.308,237.598C207.308,235.944 208.65,234.597 210.309,234.597C211.967,234.597 213.314,235.944 213.314,237.598C213.314,239.257 211.967,240.603 210.309,240.603M204.303,227.897C204.303,226.238 205.649,224.896 207.304,224.896C208.966,224.896 210.309,226.238 210.309,227.897C210.309,229.559 208.966,230.902 207.304,230.902C205.649,230.902 204.303,229.559 204.303,227.897M198.875,241.708C197.216,241.708 195.87,240.365 195.87,238.707C195.87,237.048 197.216,235.706 198.875,235.706C200.533,235.706 201.876,237.048 201.876,238.707C201.876,240.365 200.533,241.708 198.875,241.708M189.189,244.795L216.978,244.795L216.978,217.224C201.829,217.528 189.614,229.676 189.189,244.795" style="fill:white;fill-rule:nonzero;"/>
    <path d="M246.98,244.795L249.781,244.795C249.781,227.188 235.51,212.92 217.902,212.92L217.902,215.504C233.856,215.925 246.671,228.815 246.98,244.795" style="fill:white;fill-rule:nonzero;"/>
    <path d="M235.718,239.864C234.06,239.864 232.717,238.517 232.717,236.859C232.717,235.204 234.06,233.858 235.718,233.858C237.377,233.858 238.723,235.204 238.723,236.859C238.723,238.517 237.377,239.864 235.718,239.864M226.017,229.397C224.358,229.397 223.016,228.059 223.016,226.396C223.016,224.738 224.358,223.392 226.017,223.392C227.675,223.392 229.022,224.738 229.022,226.396C229.022,228.059 227.675,229.397 226.017,229.397M225.209,239.864C223.55,239.864 222.208,238.517 222.208,236.859C222.208,235.204 223.55,233.858 225.209,233.858C226.868,233.858 228.214,235.204 228.214,236.859C228.214,238.517 226.868,239.864 225.209,239.864M217.904,217.007L217.904,244.796L245.478,244.796C245.17,229.647 233.026,217.433 217.904,217.007" style="fill:white;fill-rule:nonzero;"/>
    <path d="M187.904,245.836L185.102,245.836C185.102,263.444 199.373,277.715 216.981,277.715L216.981,275.131C201.028,274.706 188.212,261.816 187.904,245.836" style="fill:white;fill-rule:nonzero;"/>
    <path d="M212.273,254.071C210.615,254.071 209.268,252.725 209.268,251.066C209.268,249.408 210.615,248.065 212.273,248.065C213.932,248.065 215.278,249.408 215.278,251.066C215.278,252.725 213.932,254.071 212.273,254.071M210.31,267.78C208.652,267.78 207.309,266.438 207.309,264.775C207.309,263.117 208.652,261.774 210.31,261.774C211.969,261.774 213.315,263.117 213.315,264.775C213.315,266.438 211.969,267.78 210.31,267.78M200.082,258.887C198.423,258.887 197.077,257.544 197.077,255.882C197.077,254.223 198.423,252.881 200.082,252.881C201.74,252.881 203.083,254.223 203.083,255.882C203.083,257.544 201.74,258.887 200.082,258.887M189.405,245.837C189.713,260.982 201.858,273.201 216.98,273.63L216.98,245.837L189.405,245.837Z" style="fill:white;fill-rule:nonzero;"/>
    <path d="M217.904,274.914L217.904,277.716C235.511,277.716 249.779,263.444 249.779,245.836L247.195,245.836C246.77,261.786 233.884,274.605 217.904,274.914" style="fill:white;fill-rule:nonzero;"/>
    <path d="M233.841,258.332C232.183,258.332 230.84,256.989 230.84,255.327C230.84,253.672 232.183,252.326 233.841,252.326C235.5,252.326 236.846,253.672 236.846,255.327C236.846,256.989 235.5,258.332 233.841,258.332M224.284,253.376C222.626,253.376 221.283,252.033 221.283,250.375C221.283,248.712 222.626,247.37 224.284,247.37C225.947,247.37 227.289,248.712 227.289,250.375C227.289,252.033 225.947,253.376 224.284,253.376M224.284,267.78C222.626,267.78 221.283,266.437 221.283,264.775C221.283,263.12 222.626,261.774 224.284,261.774C225.947,261.774 227.289,263.12 227.289,264.775C227.289,266.437 225.947,267.78 224.284,267.78M217.904,245.836L217.904,273.407C233.053,273.102 245.268,260.958 245.697,245.836L217.904,245.836Z" style="fill:white;fill-rule:nonzero;"/>
</svg>
