<?xml version="1.0" standalone="no"?>
<!DOCTYPE svg PUBLIC "-//W3C//DTD SVG 1.1//EN" "http://www.w3.org/Graphics/SVG/1.1/DTD/svg11.dtd">
<svg width="100%" height="100%" viewBox="0 0 538 174" version="1.1" xmlns="http://www.w3.org/2000/svg" xmlns:xlink="http://www.w3.org/1999/xlink" xml:space="preserve" style="fill-rule:evenodd;clip-rule:evenodd;stroke-linejoin:round;stroke-miterlimit:1.41421;">
    <path d="M275.772,5.29327L222.036,5.29327C215.038,5.29327 209.38,10.9557 209.38,17.945L209.38,159.35C209.38,166.343 215.038,172.017 222.036,172.017L275.772,172.017C282.769,172.017 288.424,166.343 288.424,159.35L288.424,17.945C288.424,10.9557 282.769,5.29327 275.772,5.29327" style="fill:white;fill-rule:nonzero;"/>
    <path d="M222.036,7.43141C216.24,7.43141 211.522,12.1495 211.522,17.9446L211.522,159.353C211.522,165.152 216.24,169.874 222.036,169.874L275.772,169.874C281.567,169.874 286.281,165.152 286.281,159.353L286.281,17.9446C286.281,12.1495 281.567,7.43141 275.772,7.43141L222.036,7.43141ZM275.772,174.155L222.036,174.155C213.876,174.155 207.241,167.513 207.241,159.353L207.241,17.9446C207.241,9.78849 213.876,3.15044 222.036,3.15044L275.772,3.15044C283.928,3.15044 290.566,9.78849 290.566,17.9446L290.566,159.353C290.566,167.513 283.928,174.155 275.772,174.155" style="fill:rgb(129,26,32);fill-rule:nonzero;"/>
    <rect x="262.412" y="2.13854" width="12.7024" height="0.827317" style="fill:white;fill-rule:nonzero;"/>
    <rect x="260.27" y="0" width="16.9834" height="5.10829" style="fill:rgb(129,26,32);fill-rule:nonzero;"/>
    <rect x="215.466" y="29.2254" width="67.2702" height="119.243" style="fill:rgb(129,26,32);fill-rule:nonzero;"/>
    <g>
        <g opacity="0.300003">
            <path d="M277.434,90.2743C277.434,105.931 264.743,118.622 249.09,118.622C233.434,118.622 220.743,105.931 220.743,90.2743C220.743,74.6178 233.434,61.927 249.09,61.927C264.743,61.927 277.434,74.6178 277.434,90.2743" style="fill:white;fill-rule:nonzero;"/>
        </g>
    </g>
    <path d="M277.434,86.7149C277.434,102.372 264.743,115.062 249.09,115.062C233.434,115.062 220.743,102.372 220.743,86.7149C220.743,71.0583 233.434,58.3676 249.09,58.3676C264.743,58.3676 277.434,71.0583 277.434,86.7149" style="fill:white;fill-rule:nonzero;"/>
    <path d="M275.138,86.7149C275.138,101.099 263.473,112.764 249.089,112.764C234.704,112.764 223.04,101.099 223.04,86.7149C223.04,72.3305 234.704,60.6622 249.089,60.6622C263.473,60.6622 275.138,72.3305 275.138,86.7149" style="fill:white;fill-rule:nonzero;"/>
    <path d="M92.1897,46.368L94.8355,43.2031C94.9253,43.0939 94.9526,42.9651 95.0228,42.8558L96.0492,43.5582C98.098,44.9748 100.908,44.4168 102.293,42.3251L103.799,40.046C105.185,37.9543 104.638,35.0821 102.59,33.6695L93.6023,27.4763C91.5536,26.0636 88.7399,26.6178 87.3584,28.7134L85.8521,30.9924C84.4667,33.088 85.0092,35.9524 87.0619,37.3651L87.3701,37.5797L84.3653,41.1778C78.8082,38.1651 72.6814,36.1436 66.1955,35.2265L66.1955,30.4031C66.1955,30.3797 66.1838,30.3602 66.1838,30.3368C69.8716,30.3251 72.8882,27.2421 72.8882,23.4724L72.8882,19.1758C72.8882,15.4021 69.8599,12.3114 66.1643,12.3114L50.1877,12.3114C46.4882,12.3114 43.4599,15.4021 43.4599,19.1758L43.4599,23.4724C43.4599,27.2421 46.4765,30.3251 50.1682,30.3368C50.1682,30.3602 50.1526,30.3797 50.1526,30.4031L50.1526,35.3592C23.7565,39.5114 3.52234,62.7348 3.52234,90.8441C3.52234,121.896 28.178,147.063 58.5936,147.063C89.0131,147.063 113.669,121.896 113.669,90.8441C113.669,72.7251 105.232,56.6509 92.1897,46.368" style="fill:white;fill-rule:nonzero;"/>
    <path d="M53.6741,31.0135L53.6741,38.3696L50.6966,38.8379C25.4088,42.8183 7.04781,64.6954 7.04781,90.8457C7.04781,119.899 30.1737,143.54 58.5951,143.54C87.0166,143.54 110.146,119.899 110.146,90.8457C110.146,74.4242 102.806,59.2242 90.0098,49.1364L87.1649,46.8886L91.9024,41.2183C91.9532,41.1169 92.0117,41.0193 92.0781,40.9218L94.0527,37.913L98.0449,40.6564C98.3337,40.8515 98.7668,41.2496 99.3483,40.3793L100.859,38.1003C101.186,37.6047 101.061,36.8944 100.585,36.5705L91.602,30.3774C91.3249,30.1861 90.8605,29.7998 90.2946,30.6583L88.7961,32.9335C88.4644,33.4291 88.5893,34.1432 89.0576,34.4632L92.5385,36.8827L85.2215,45.6515L82.6849,44.274C77.4478,41.4369 71.7346,39.5637 65.7054,38.7169L62.6732,38.2876L62.6615,26.8261L66.1698,26.8105C67.9337,26.8066 69.3659,25.3081 69.3659,23.4661L69.3659,19.1774C69.3659,17.3354 67.9298,15.8369 66.1659,15.8369L50.1854,15.8369C48.4215,15.8369 46.9854,17.3354 46.9854,19.1774L46.9854,23.4661C46.9854,25.3081 48.4215,26.8066 50.1815,26.8105L53.6937,26.8261L53.6741,31.0135ZM58.5951,150.588C26.2868,150.588 0,123.786 0,90.8457C0,62.6427 18.8761,38.834 45.4595,32.6798C42.1815,30.9432 39.9376,27.4622 39.9376,23.4661L39.9376,19.1774C39.9376,13.4486 44.5346,8.78907 50.1854,8.78907L66.1659,8.78907C71.8127,8.78907 76.4137,13.4486 76.4137,19.1774L76.4137,23.4661C76.4137,27.3608 74.2868,30.7598 71.1532,32.5432C74.8839,33.3666 78.4937,34.5413 81.9551,36.071C81.2254,33.7881 81.4946,31.1891 82.9112,29.0427L84.4137,26.7715C86.8059,23.1618 92.0468,22.1354 95.5981,24.5705L104.589,30.7715C108.219,33.273 109.179,38.3032 106.74,41.991L105.229,44.2661C103.863,46.3383 101.647,47.6418 99.2039,47.8408C110.704,59.0759 117.19,74.4281 117.19,90.8457C117.19,123.786 90.9073,150.588 58.5951,150.588" style="fill:rgb(129,26,32);fill-rule:nonzero;"/>
    <path d="M113.668,90.8461C113.668,121.894 89.0127,147.065 58.5971,147.065C28.1776,147.065 3.52195,121.894 3.52195,90.8461C3.52195,59.7982 28.1776,34.6275 58.5971,34.6275C89.0127,34.6275 113.668,59.7982 113.668,90.8461" style="fill:white;fill-rule:nonzero;"/>
    <path d="M103.579,90.4152C103.579,116.015 83.2511,136.764 58.1741,136.764C33.097,136.764 12.7692,116.015 12.7692,90.4152C12.7692,64.8191 33.097,44.0699 58.1741,44.0699C83.2511,44.0699 103.579,64.8191 103.579,90.4152" style="fill:rgb(129,26,32);fill-rule:nonzero;"/>
    <path d="M61.3838,40.5182L54.9643,40.5182C52.3184,40.5182 50.1526,38.3524 50.1526,35.7065L50.1526,30.3524C50.1526,27.7104 52.3184,25.5446 54.9643,25.5446L61.3838,25.5446C64.0336,25.5446 66.1955,27.7104 66.1955,30.3524L66.1955,35.7065C66.1955,38.3524 64.0336,40.5182 61.3838,40.5182" style="fill:white;fill-rule:nonzero;"/>
    <path d="M94.8862,43.1403L90.816,48.0144C89.575,49.5013 87.3584,49.6808 85.8989,48.4086L84.0648,46.8125C82.6638,45.591 82.4921,43.4213 83.6823,41.993L87.7526,37.1227C88.9975,35.632 91.2101,35.4564 92.6697,36.7286L94.4999,38.3247C95.9048,39.5422 96.0804,41.7159 94.8862,43.1403" style="fill:white;fill-rule:nonzero;"/>
    <path d="M66.0921,30.3352L50.256,30.3352C46.5175,30.3352 43.4619,27.2796 43.4619,23.5411L43.4619,19.1079C43.4619,15.3694 46.5175,12.3138 50.256,12.3138L66.0921,12.3138C69.8306,12.3138 72.8901,15.3694 72.8901,19.1079L72.8901,23.5411C72.8901,27.2796 69.8306,30.3352 66.0921,30.3352" style="fill:white;fill-rule:nonzero;"/>
    <path d="M95.9606,43.4985L87.0045,37.3288C84.983,35.9395 84.4406,33.1259 85.7947,31.0771L87.3206,28.7707C88.7255,26.6478 91.5899,26.0898 93.6894,27.5376L102.645,33.7073C104.663,35.1005 105.209,37.9102 103.855,39.959L102.333,42.2654C100.924,44.3922 98.0601,44.9463 95.9606,43.4985" style="fill:white;fill-rule:nonzero;"/>
    <path d="M63.4302,90.4152C63.4302,93.3811 61.0771,95.7811 58.1737,95.7811C55.2741,95.7811 52.921,93.3811 52.921,90.4152C52.921,87.4533 55.2741,85.0533 58.1737,85.0533C61.0771,85.0533 63.4302,87.4533 63.4302,90.4152" style="fill:white;fill-rule:nonzero;"/>
    <path d="M54.7567,85.625C56.8523,83.8416 79.6816,70.0191 86.183,66.0933C79.3186,57.6211 68.946,52.2201 57.3362,52.2201C36.6689,52.2201 19.9196,69.3206 19.9196,90.4133L52.6299,90.4133C52.6103,88.6338 53.3362,86.8386 54.7567,85.625" style="fill:rgb(172,34,42);fill-rule:nonzero;"/>
    <path d="M75.7323,75.4267C67.0806,85.5301 61.4884,91.8872 60.5362,92.6989C59.9547,93.1945 59.1664,93.4677 58.3274,93.4677C57.3167,93.4677 56.384,93.0658 55.8299,92.3906C55.2913,91.7311 55.0494,90.8687 55.1469,89.9594C55.2445,89.0384 55.6933,88.1838 56.3723,87.6023C57.3128,86.8062 64.5947,82.2287 75.7323,75.4267M86.6318,62.8297C81.4728,65.936 55.6074,81.5458 53.1411,83.6492C51.4435,85.0931 50.3781,87.1341 50.1323,89.3975C49.8825,91.7116 50.5303,93.9477 51.9586,95.6882C53.504,97.5809 55.8142,98.6658 58.2962,98.6658C60.3021,98.6658 62.2455,97.9477 63.7674,96.6482C66.3196,94.4823 87.424,69.5653 89.8942,66.6306L91.666,62.377L86.6318,62.8297Z" style="fill:rgb(129,26,32);fill-rule:nonzero;"/>
    <path d="M62.1538,94.6759C59.7069,96.7598 55.9372,96.5374 53.8923,94.0398C51.8513,91.5383 52.3079,87.714 54.7547,85.6301C57.2016,83.5383 87.9138,65.0486 87.9138,65.0486C87.9138,65.0486 64.6006,92.592 62.1538,94.6759" style="fill:white;fill-rule:nonzero;"/>
    <path d="M384.627,85.122C384.627,42.6556 419.054,8.2322 461.52,8.2322C503.987,8.2322 538.414,42.6556 538.414,85.122C538.414,127.592 503.987,162.016 461.52,162.016C419.054,162.016 384.627,127.592 384.627,85.122" style="fill:rgb(129,26,32);fill-rule:nonzero;"/>
    <path d="M460.519,20.9526L460.519,14.8765C422.341,14.8765 391.399,45.8228 391.399,83.9965L396.999,83.9965C397.924,49.4131 425.869,21.616 460.519,20.9526" style="fill:white;fill-rule:nonzero;"/>
    <path d="M446.056,74.9046C442.462,74.9046 439.547,71.9895 439.547,68.3914C439.547,64.7973 442.462,61.8821 446.056,61.8821C449.654,61.8821 452.565,64.7973 452.565,68.3914C452.565,71.9895 449.654,74.9046 446.056,74.9046M433.034,47.3534C433.034,43.7631 435.949,40.848 439.543,40.848C443.141,40.848 446.056,43.7631 446.056,47.3534C446.056,50.9514 443.141,53.8665 439.543,53.8665C435.949,53.8665 433.034,50.9514 433.034,47.3534M421.26,77.3046C417.666,77.3046 414.751,74.3895 414.751,70.7914C414.751,67.1973 417.666,64.2821 421.26,64.2821C424.858,64.2821 427.769,67.1973 427.769,70.7914C427.769,74.3895 424.858,77.3046 421.26,77.3046M400.257,83.9973L460.519,83.9973L460.519,24.208C427.668,24.8753 401.182,51.2129 400.257,83.9973" style="fill:white;fill-rule:nonzero;"/>
    <path d="M525.568,83.9977L531.645,83.9977C531.645,45.8201 500.694,14.8777 462.524,14.8777L462.524,20.4816C497.108,21.4025 524.901,49.3479 525.568,83.9977" style="fill:white;fill-rule:nonzero;"/>
    <path d="M501.149,73.3003C497.555,73.3003 494.64,70.3852 494.64,66.7871C494.64,63.193 497.555,60.2779 501.149,60.2779C504.747,60.2779 507.662,63.193 507.662,66.7871C507.662,70.3852 504.747,73.3003 501.149,73.3003M480.111,50.6154C476.521,50.6154 473.602,47.6964 473.602,44.1022C473.602,40.5081 476.521,37.593 480.111,37.593C483.713,37.593 486.624,40.5081 486.624,44.1022C486.624,47.6964 483.713,50.6154 480.111,50.6154M478.363,73.3003C474.765,73.3003 471.854,70.3852 471.854,66.7871C471.854,63.193 474.765,60.2779 478.363,60.2779C481.961,60.2779 484.876,63.193 484.876,66.7871C484.876,70.3852 481.961,73.3003 478.363,73.3003M462.523,23.7354L462.523,83.9969L522.308,83.9969C521.649,51.1461 495.307,24.6603 462.523,23.7354" style="fill:white;fill-rule:nonzero;"/>
    <path d="M397.472,86.2498L391.396,86.2498C391.396,124.427 422.346,155.374 460.52,155.374L460.52,149.766C425.932,148.845 398.139,120.9 397.472,86.2498" style="fill:white;fill-rule:nonzero;"/>
    <path d="M450.313,104.104C446.719,104.104 443.804,101.189 443.804,97.591C443.804,93.9969 446.719,91.0818 450.313,91.0818C453.911,91.0818 456.826,93.9969 456.826,97.591C456.826,101.189 453.911,104.104 450.313,104.104M446.055,133.833C442.461,133.833 439.546,130.918 439.546,127.32C439.546,123.726 442.461,120.811 446.055,120.811C449.653,120.811 452.569,123.726 452.569,127.32C452.569,130.918 449.653,133.833 446.055,133.833M423.874,114.551C420.28,114.551 417.365,111.636 417.365,108.038C417.365,104.44 420.28,101.529 423.874,101.529C427.472,101.529 430.387,104.44 430.387,108.038C430.387,111.636 427.472,114.551 423.874,114.551M400.729,86.2505C401.392,119.101 427.733,145.587 460.518,146.512L460.518,86.2505L400.729,86.2505Z" style="fill:white;fill-rule:nonzero;"/>
    <path d="M462.523,149.295L462.523,155.375C500.697,155.375 531.643,124.425 531.643,86.2509L526.039,86.2509C525.115,120.834 497.169,148.631 462.523,149.295" style="fill:white;fill-rule:nonzero;"/>
    <path d="M497.079,113.346C493.485,113.346 490.57,110.435 490.57,106.837C490.57,103.239 493.485,100.327 497.079,100.327C500.677,100.327 503.593,103.239 503.593,106.837C503.593,110.435 500.677,113.346 497.079,113.346M476.361,102.599C472.767,102.599 469.848,99.6874 469.848,96.0894C469.848,92.4913 472.767,89.5801 476.361,89.5801C479.959,89.5801 482.871,92.4913 482.871,96.0894C482.871,99.6874 479.959,102.599 476.361,102.599M476.361,133.834C472.767,133.834 469.848,130.919 469.848,127.321C469.848,123.726 472.767,120.811 476.361,120.811C479.959,120.811 482.871,123.726 482.871,127.321C482.871,130.919 479.959,133.834 476.361,133.834M462.523,86.2513L462.523,146.041C495.374,145.377 521.86,119.036 522.781,86.2513L462.523,86.2513Z" style="fill:white;fill-rule:nonzero;"/>
    <rect x="132.5" y="86.0137" width="43.2702" height="16.999" style="fill:white;fill-rule:nonzero;"/>
    <path d="M157.889,74.5998L192.617,94.6505L157.889,114.697L157.889,74.5998Z" style="fill:white;fill-rule:nonzero;"/>
    <rect x="312.859" y="86.0137" width="43.2702" height="16.999" style="fill:white;fill-rule:nonzero;"/>
    <path d="M338.251,74.5998L372.979,94.6505L338.251,114.697L338.251,74.5998Z" style="fill:white;fill-rule:nonzero;"/>
    <path d="M296.483,101.818L293.252,102.048C290.879,102.212 289.076,104.288 289.244,106.657L290.364,122.618L255.581,88.4246C253.888,86.7621 251.136,86.7856 249.47,88.4792L247.199,90.7934C245.532,92.4831 245.556,95.2343 247.25,96.9007L263.628,112.998C263.207,113.197 259.097,117.205 259.097,117.205C257.552,118.782 257.572,121.334 259.148,122.883L255.492,126.185C253.942,127.761 253.966,130.313 255.538,131.859L253.439,134.27C251.89,135.847 251.913,138.403 253.486,139.948L273.486,161.751C274.508,162.754 286.407,164.546 286.407,164.546C286.407,164.546 304.795,148.916 305.724,145.662C306.321,143.558 304.498,138.286 303.132,134.821L301.095,105.822C300.932,103.453 298.852,101.65 296.483,101.818" style="fill:white;fill-rule:nonzero;"/>
    <path d="M276.024,158.293C277.542,158.745 281.448,159.495 285.144,160.092C292.254,153.98 299.977,146.8 301.632,144.427C301.565,143.463 301.023,140.923 299.224,136.365L298.935,135.116L296.902,106.121L293.546,106.238L295.333,133.399L252.629,91.4244L250.194,93.7346L270.869,114.222L265.842,116.599C264.769,117.532 262.045,120.205 262.037,120.213L265.218,123.342L261.963,126.004L258.307,129.305L261.132,132.076L256.605,137.036L276.024,158.293ZM287.673,168.989L285.78,168.704C272.535,166.71 271.435,165.625 270.545,164.751L250.389,142.792C247.31,139.772 247.259,134.558 250.439,131.327L250.467,131.296C249.667,128.537 250.338,125.426 252.492,123.237L253.967,121.902C253.343,119.253 254.053,116.345 256.102,114.261C256.625,113.75 257.093,113.294 257.515,112.888L244.305,99.8966C242.681,98.3044 241.78,96.1737 241.76,93.8946C241.741,91.6156 242.603,89.4615 244.199,87.842L246.475,85.5317C249.647,82.281 255.294,82.242 258.525,85.4302L285.394,111.838L285.05,106.952C284.89,104.689 285.628,102.492 287.122,100.771C288.617,99.0459 290.689,98.0117 292.956,97.8517L296.785,97.6059C301.245,97.6059 304.976,101.087 305.292,105.532L307.282,133.887C310.428,142.012 310.264,145.071 309.76,146.827C309.448,147.924 308.488,151.296 289.128,167.752L287.673,168.989Z" style="fill:rgb(129,26,32);fill-rule:nonzero;"/>
    <path d="M296.483,101.818L293.252,102.048C290.879,102.212 289.076,104.288 289.244,106.657L290.364,122.618L255.581,88.4246C253.888,86.7621 251.136,86.7856 249.47,88.4792L247.199,90.7934C245.532,92.4831 245.556,95.2343 247.25,96.9007L263.628,112.998C263.207,113.197 259.097,117.205 259.097,117.205C257.552,118.782 257.572,121.334 259.148,122.883L255.492,126.185C253.942,127.761 253.966,130.313 255.538,131.859L253.439,134.27C251.89,135.847 251.913,138.403 253.486,139.948L273.486,161.751C274.508,162.754 286.407,164.546 286.407,164.546C286.407,164.546 304.795,148.916 305.724,145.662C306.321,143.558 304.498,138.286 303.132,134.821L301.095,105.822C300.932,103.453 298.852,101.65 296.483,101.818" style="fill:white;fill-rule:nonzero;"/>
</svg>
