<?xml version="1.0" standalone="no"?>
<!DOCTYPE svg PUBLIC "-//W3C//DTD SVG 1.1//EN" "http://www.w3.org/Graphics/SVG/1.1/DTD/svg11.dtd">
<svg width="100%" height="100%" viewBox="0 0 42 45" version="1.1" xmlns="http://www.w3.org/2000/svg" xmlns:xlink="http://www.w3.org/1999/xlink" xml:space="preserve" style="fill-rule:evenodd;clip-rule:evenodd;stroke-linecap:round;stroke-miterlimit:10;">
    <path d="M42.9463,23.8041C42.9463,35.6636 33.3307,45.2753 21.4751,45.2753C9.61561,45.2753 0,35.6636 0,23.8041C0,11.9446 9.61561,2.32898 21.4751,2.32898C33.3307,2.32898 42.9463,11.9446 42.9463,23.8041" style="fill:rgb(129,26,32);fill-rule:nonzero;"/>
    <path d="M42.6377,21.1668C42.6377,32.8546 33.1625,42.3337 21.4747,42.3337C9.78302,42.3337 0.307902,32.8546 0.307902,21.1668C0.307902,9.47902 9.78302,0 21.4747,0C33.1625,0 42.6377,9.47902 42.6377,21.1668" style="fill:rgb(172,34,42);fill-rule:nonzero;"/>
    <path d="M27.9465,34.1967L11.6187,21.982L27.9465,9.77132" style="fill:none;stroke-width:5.33px;stroke:white;"/>
</svg>
