<?xml version="1.0" standalone="no"?>
<!DOCTYPE svg PUBLIC "-//W3C//DTD SVG 1.1//EN" "http://www.w3.org/Graphics/SVG/1.1/DTD/svg11.dtd">
<svg width="100%" height="100%" viewBox="0 0 254 208" version="1.1" xmlns="http://www.w3.org/2000/svg" xmlns:xlink="http://www.w3.org/1999/xlink" xml:space="preserve" style="fill-rule:evenodd;clip-rule:evenodd;stroke-linejoin:round;stroke-miterlimit:1.41421;">
    <path d="M58.8414,71.4849C71.977,37.2176 105.195,12.8156 144.028,12.8156C159.399,12.8156 173.885,16.6517 186.603,23.399L196.254,14.0761C180.902,5.13951 163.072,0 144.028,0C97.9477,0 58.8882,29.9746 45.2258,71.4849L58.8414,71.4849Z" style="fill:rgb(255,226,84);fill-rule:nonzero;"/>
    <path d="M223.91,60.0632C231.118,73.1091 235.235,88.0944 235.235,104.024C235.235,154.311 194.322,195.232 144.027,195.232C107.324,195.232 75.6367,173.425 61.1821,142.096L47.2308,142.096C62.4308,180.703 100.023,208.044 144.027,208.044C201.479,208.044 248.05,161.472 248.05,104.024C248.05,84.594 242.708,66.4203 233.436,50.8613L223.91,60.0632Z" style="fill:rgb(255,226,84);fill-rule:nonzero;"/>
    <path d="M218.285,50.1393C217.422,50.1393 216.353,50.2174 215.015,50.3735C214.636,50.4125 214.035,50.5335 213.282,50.6779C211.409,51.0369 208.583,51.5871 206.101,51.5871C204.732,51.5871 203.639,51.4154 202.855,51.0837C201.27,50.4086 200.103,50.0808 199.284,50.0808C198.379,50.0808 197.957,50.4827 197.758,50.8183C197.243,51.6925 197.805,52.9179 198.277,53.7608C199.815,56.5315 202.535,59.6535 203.022,60.2037C200.189,73.8661 175.147,85.7842 136.751,91.5559C122.57,93.6905 113.899,98.514 110.98,105.905C107.46,114.822 113.715,124.016 115.073,125.858C114.804,126.229 114.531,126.623 114.258,127.06C113.871,127.466 112.06,129.523 112.513,131.7C112.806,133.113 113.938,134.217 115.885,134.978C117.348,135.56 118.827,135.849 120.279,135.849C124.49,135.849 127.37,133.468 128.068,131.774C128.384,131.01 128.299,130.299 127.834,129.835C127.155,129.156 127.155,129.156 127.623,128.297C127.729,128.102 127.85,127.88 127.979,127.622C128.341,126.896 127.94,125.972 127.538,125.32C126.464,123.587 124.213,121.839 121.586,121.839C120.755,121.839 119.744,122.018 118.644,122.596C117.243,120.586 113.032,113.772 115.44,107.665C117.653,102.065 125.27,98.1354 137.465,96.2974C137.504,96.2935 137.547,96.2857 137.59,96.2779C141.329,98.2408 147.51,102.549 150.219,110.522C153.84,121.164 150.332,134.783 139.819,151.037C137.676,152.508 135.526,154.022 133.372,155.583C124.622,161.936 117.902,164.176 113.945,162.085C109.633,159.798 108.911,152.297 108.997,149.597C109.044,148.27 108.01,147.162 106.687,147.119C106.418,147.107 106.164,147.15 105.914,147.228C105.902,147.185 105.895,147.142 105.879,147.103L105.547,147.376C105.212,147.548 104.911,147.786 104.681,148.091L80.6029,167.958C80.6029,167.958 88.9073,172.602 96.5249,169.683C100.849,168.024 104.396,164.411 106.023,159.65C107.124,162.295 108.876,164.82 111.682,166.315C113.333,167.193 115.19,167.63 117.239,167.63C122.355,167.63 128.7,164.902 136.189,159.47C163.744,139.474 189.485,128.083 197.028,126.932C196.459,130.256 192.15,138.865 189.715,143.724C184.455,154.229 182.827,157.73 184.568,159.767L185.637,161.546C185.715,161.995 186.09,163.33 187.826,163.689C189.918,164.118 195.186,164.793 204.572,153.562C213.957,142.331 212.033,136.329 212.033,136.329C212.033,136.329 205.223,135.829 194.261,145.355C200.583,132.707 203.151,126.787 201.251,123.716C200.595,122.647 199.452,122.038 198.121,122.038C194.937,122.038 188.232,124.208 179.456,128.219C187.873,112.692 190.269,100.727 186.539,92.6369C184.775,88.8086 182,86.6857 179.756,85.5227C196.673,78.6466 206.656,69.7686 207.943,59.8213C209.645,59.3881 211.666,58.7013 213.633,57.6164C220.42,53.8622 221.543,52.5159 221.243,51.3491C220.966,50.2759 219.514,50.1393 218.285,50.1393" style="fill:white;fill-rule:nonzero;"/>
    <path d="M137.885,71.0806C137.885,78.8425 145.444,85.1567 154.728,85.1567C164.02,85.1567 171.575,78.8425 171.575,71.0806C171.575,63.3186 164.02,57.0045 154.728,57.0045C145.444,57.0045 137.885,63.3186 137.885,71.0806" style="fill:white;fill-rule:nonzero;"/>
    <rect x="189.88" y="37.4006" width="64.8898" height="8.78829" style="fill:white;fill-rule:nonzero;"/>
    <path d="M112.235,75.5817L34.1588,75.5817C33.0037,75.5817 32.0671,76.3856 32.0671,77.3807C32.0671,78.3719 33.0037,79.1797 34.1588,79.1797L112.235,79.1797C113.386,79.1797 114.327,78.3719 114.327,77.3807C114.327,76.3856 113.386,75.5817 112.235,75.5817" style="fill:white;fill-rule:nonzero;"/>
    <path d="M93.4127,98.962C93.4127,97.9707 92.4761,97.1629 91.321,97.1629L2.0878,97.1629C0.936585,97.1629 0,97.9707 0,98.962C0,99.9532 0.936585,100.761 2.0878,100.761L91.321,100.761C92.4761,100.761 93.4127,99.9532 93.4127,98.962" style="fill:white;fill-rule:nonzero;"/>
    <path d="M92.7153,116.95L32.7621,116.95C31.6109,116.95 30.6704,117.754 30.6704,118.749C30.6704,119.74 31.6109,120.548 32.7621,120.548L92.7153,120.548C93.8665,120.548 94.807,119.74 94.807,118.749C94.807,117.754 93.8665,116.95 92.7153,116.95" style="fill:white;fill-rule:nonzero;"/>
    <path d="M89.2301,134.335L46.8496,134.335C45.6944,134.335 44.7579,135.143 44.7579,136.134C44.7579,137.125 45.6944,137.933 46.8496,137.933L89.2301,137.933C90.3813,137.933 91.3218,137.125 91.3218,136.134C91.3218,135.143 90.3813,134.335 89.2301,134.335" style="fill:white;fill-rule:nonzero;"/>
    <path d="M153.996,54.9947C153.996,54.9947 153.992,54.9713 153.988,54.9635C154.651,54.6435 163.1,50.4679 163.693,46.1947C163.99,44.0523 161.621,41.4884 160.743,43.303C159.127,46.6279 155.061,49.6952 152.56,51.346C151.412,49.1411 149.547,46.7528 146.8,46.7528C141.707,46.7528 130.464,59.3421 130.464,62.3391C130.464,65.3362 135.709,72.6806 135.709,72.6806C136.009,55.5957 153.996,54.9947 153.996,54.9947" style="fill:white;fill-rule:nonzero;"/>
    <path d="M235.088,31.2332C234.256,31.2332 233.581,30.558 233.581,29.7268C233.581,19.2761 225.948,7.62732 214.994,7.62732C214.163,7.62732 213.488,6.9522 213.488,6.12098C213.488,5.28976 214.163,4.61463 214.994,4.61463C225.425,4.61463 236.594,14.7063 236.594,29.7268C236.594,30.558 235.919,31.2332 235.088,31.2332" style="fill:white;fill-rule:nonzero;"/>
    <path d="M223.78,31.2332C222.949,31.2332 222.274,30.558 222.274,29.7268C222.274,20.9463 215.374,13.5317 207.207,13.5317C206.375,13.5317 205.7,12.8527 205.7,12.0215C205.7,11.1902 206.375,10.5151 207.207,10.5151C217.01,10.5151 225.287,19.3112 225.287,29.7268C225.287,30.558 224.612,31.2332 223.78,31.2332" style="fill:white;fill-rule:nonzero;"/>
    <path d="M212.727,31.2332C211.895,31.2332 211.22,30.558 211.22,29.7268C211.22,24.0488 206.6,19.4322 200.926,19.4322C200.091,19.4322 199.415,18.7571 199.415,17.9259C199.415,17.0907 200.091,16.4156 200.926,16.4156C208.262,16.4156 214.233,22.3863 214.233,29.7268C214.233,30.558 213.558,31.2332 212.727,31.2332" style="fill:white;fill-rule:nonzero;"/>
</svg>
