<?xml version="1.0" standalone="no"?>
<!DOCTYPE svg PUBLIC "-//W3C//DTD SVG 1.1//EN" "http://www.w3.org/Graphics/SVG/1.1/DTD/svg11.dtd">
<svg width="100%" height="100%" viewBox="0 0 230 78" version="1.1" xmlns="http://www.w3.org/2000/svg" xmlns:xlink="http://www.w3.org/1999/xlink" xml:space="preserve" style="fill-rule:evenodd;clip-rule:evenodd;stroke-linejoin:round;stroke-miterlimit:1.41421;">
    <path d="M11.1063,77.9548C7.47707,77.6153 3.57463,77.5645 0,77.9548C3.06732,64.4211 6.17756,51.8006 10.8215,37.6465C14.8995,36.8504 19.3132,36.9714 23.3912,37.0767C18.6888,51.1762 15.118,63.9138 11.1063,77.9548" style="fill:rgb(172,34,42);fill-rule:nonzero;"/>
    <path d="M30.5768,37.5317C34.7641,37.1337 38.1046,37.1961 42.2412,37.4732C42.5846,42.8 43.0295,49.8713 43.5992,55.2566C46.9943,49.8713 50.3387,43.1942 53.6792,37.8088C58.2061,37.1961 60.6412,37.1961 65.2265,37.5317C63.6421,50.441 61.9407,65.3288 60.5826,77.7269C57.0158,77.6137 54.0148,77.7893 50.3895,77.9532C50.6743,72.0098 51.0139,63.8537 51.4158,58.0235C47.8451,64.4781 44.2821,71.4986 40.4265,77.7893C37.5426,77.6137 36.8636,77.6137 34.2568,77.84C33.6363,71.6742 33.2929,64.2517 33.2929,58.1366C29.7924,65.4381 27.8021,71.9005 25.4295,78.0078C21.8665,77.6137 18.5807,77.7269 15.01,77.9532C20.2158,63.4635 24.3446,50.9522 30.5768,37.5317" style="fill:rgb(172,34,42);fill-rule:nonzero;"/>
    <path d="M89.1742,55.7066C92.0074,53.0451 93.5879,46.7036 88.8386,45.9661C87.4181,45.8607 85.5489,45.9661 83.7421,46.7583C82.6611,50.2666 81.8142,53.9505 80.7333,57.5212C84.1908,57.97 87.2503,57.3495 89.1742,55.7066M75.5274,37.9856C78.5284,37.0256 83.8513,35.8354 88.7762,36.0032C94.2084,36.1749 103.726,36.9124 103.836,47.7807C103.894,59.328 94.2084,69.2363 77.7908,67.0275C75.8084,72.69 75.4728,74.0441 73.943,77.8412C71.1099,77.8412 67.0357,77.7866 63.8669,78.009C67.4884,64.8812 70.8874,51.7417 75.5274,37.9856" style="fill:rgb(172,34,42);fill-rule:nonzero;"/>
    <path d="M114.026,65.7827C113.343,68.9007 115.606,69.01 117.253,69.01C120.426,68.9007 121.838,68.2178 122.912,64.9905C125.464,57.5212 128.629,45.1193 130.217,37.3066C135.083,36.9124 138.599,36.971 142.56,37.369C140.348,45.6305 137.577,56.8968 134.744,65.5524C131.009,77.33 125.401,78.8636 114.705,78.8636C111.029,78.8636 108.082,78.1222 106.041,76.8812C101.343,73.8256 102.646,67.9836 103.669,63.0666C105.585,54.4032 108.875,44.2139 110.74,38.0988C114.927,37.7046 119.005,37.7046 122.182,37.9856C119.575,45.7983 115.778,57.9154 114.026,65.7827" style="fill:rgb(172,34,42);fill-rule:nonzero;"/>
    <path d="M163.961,67.0822C162.599,70.5397 161.186,73.9934 159.262,77.5017C151.614,78.009 141.99,78.009 136.496,78.009C139.899,64.37 143.067,51.8588 147.707,37.5329C152.523,36.6822 156.429,36.5144 161.241,36.6236C155.801,49.8178 153.093,57.689 149.635,68.1085C153.311,68.1085 159.707,67.5934 163.961,67.0822" style="fill:rgb(172,34,42);fill-rule:nonzero;"/>
    <path d="M165.314,68.2752C167.807,68.7864 171.885,69.0674 174.543,68.8995C180.826,68.443 182.644,64.8176 176.463,61.3093C172.225,58.9288 169.731,56.4937 169.392,52.0839C169.165,49.9883 169.899,47.5532 170.921,45.8595C174.199,39.9083 182.808,37.4225 189.485,36.8488C193.396,36.5132 196.736,36.681 200.642,37.0791L197.7,48.6264C195.093,48.0059 189.485,47.8927 186.945,49.1376C184.908,50.1561 182.976,52.0839 183.038,54.5191C183.038,57.1766 188.182,58.761 189.942,60.0605C192.377,61.8205 195.436,63.6352 194.929,67.081C194.757,68.2752 194.192,69.6917 193.509,70.7064C187.39,78.9717 173.236,79.4283 163.788,77.6722L165.314,68.2752Z" style="fill:rgb(172,34,42);fill-rule:nonzero;"/>
    <path d="M222.776,54.5745C221.984,57.4584 221.305,59.6125 220.286,62.4964C216.949,62.2779 210.436,62.3286 207.154,62.555C206.588,64.5413 205.96,66.3481 205.34,68.3267C209.02,68.3267 215.697,68.1081 219.892,67.593C218.53,71.1013 217.121,74.3325 215.299,77.7862C207.829,78.235 197.925,78.0672 192.602,78.0672C195.884,64.7091 198.776,51.9637 203.361,37.9306C211.166,36.7403 222.495,36.6233 230.253,36.8496C228.778,40.5335 227.248,44.4945 225.835,48.2291C222.101,48.0613 215.478,48.2291 211.459,48.6272C210.772,50.6642 210.093,52.8769 209.472,54.9725C213.266,54.4028 219.385,54.4613 222.776,54.5745" style="fill:rgb(172,34,42);fill-rule:nonzero;"/>
    <path d="M79.2773,14.3918C81.3417,12.4484 82.5046,7.82013 79.0275,7.2855C78.0012,7.20355 76.6314,7.2855 75.3124,7.86306C74.5319,10.4231 73.9075,13.1118 73.1231,15.7148C75.6441,16.0426 77.8763,15.5899 79.2773,14.3918M69.3261,1.45916C71.5153,0.760621 75.3943,-0.109622 78.9924,0.0113531C82.9495,0.140134 89.8919,0.674768 89.9778,8.60843C90.0207,17.0377 82.9495,24.2611 70.9768,22.6494C69.529,26.786 69.2831,27.7733 68.1592,30.5479C66.1026,30.5479 63.1251,30.5011 60.8187,30.6689C63.4568,21.0884 65.9348,11.5001 69.3261,1.45916" style="fill:rgb(172,34,42);fill-rule:nonzero;"/>
    <path d="M95.3901,30.6264C92.7442,30.3805 89.8993,30.3376 87.2964,30.6264C89.5247,20.7532 91.7959,11.5395 95.1871,1.20979C98.1569,0.636134 101.376,0.714182 104.354,0.800036C100.924,11.0869 98.3247,20.3786 95.3901,30.6264" style="fill:rgb(172,34,42);fill-rule:nonzero;"/>
    <path d="M126.411,0.759841C126.169,2.53545 126.005,4.19008 125.588,5.80179C123.028,9.06033 114.275,18.8515 110.552,23.8115C113.978,23.7257 116.956,23.4408 120.468,22.9023C119.972,25.0525 119.149,28.4398 118.396,30.5003C110.595,30.5862 106.587,30.7111 98.825,30.6681C98.903,29.634 99.1099,28.3501 99.4845,27.3237C103.656,21.3686 109.685,13.3179 114.275,8.11204C111.5,7.99106 107.243,8.31887 104.437,8.61155C104.811,6.20765 105.514,3.60862 106.626,0.798865C112.991,0.346182 120.261,0.432036 126.411,0.759841" style="fill:rgb(172,34,42);fill-rule:nonzero;"/>
    <path d="M148.805,0.759841C148.563,2.53545 148.395,4.19008 147.981,5.80179C145.421,9.06033 136.66,18.8515 132.945,23.8115C136.372,23.7257 139.345,23.4408 142.861,22.9023C142.366,25.0525 141.538,28.4398 140.793,30.5003C132.984,30.5862 128.98,30.7111 121.214,30.6681C121.292,29.634 121.503,28.3501 121.87,27.3237C126.046,21.3686 132.079,13.3179 136.66,8.11204C133.893,7.99106 129.64,8.31887 126.83,8.61155C127.201,6.20765 127.907,3.60862 129.019,0.798865C135.384,0.346182 142.651,0.432036 148.805,0.759841" style="fill:rgb(172,34,42);fill-rule:nonzero;"/>
    <path d="M161.034,18.4847C161.077,15.0506 160.87,11.2457 160.663,7.7413C158.56,11.2106 156.656,14.9686 154.802,18.395C156.905,18.313 158.806,18.274 161.034,18.4847M142.576,30.3364C146.907,20.795 151.536,10.4652 156.453,0.970573C160.375,0.346182 163.848,0.346182 167.481,0.47106C167.567,10.5081 167.809,20.9198 167.356,30.5862C164.878,30.5003 162.107,30.4184 159.637,30.7111C159.754,29.0135 159.801,27.1989 159.836,25.4623C157.487,25.5481 155.251,25.5481 152.441,25.7511C151.664,27.2379 150.911,28.8067 150.01,30.3364C147.407,30.1257 144.882,30.1257 142.576,30.3364" style="fill:rgb(172,34,42);fill-rule:nonzero;"/>
</svg>
