<?xml version="1.0" encoding="UTF-8" standalone="no"?>
<svg width="46px" height="17px" viewBox="0 0 46 17" version="1.1" xmlns="http://www.w3.org/2000/svg" xmlns:xlink="http://www.w3.org/1999/xlink" xmlns:sketch="http://www.bohemiancoding.com/sketch/ns">
    <title>PI-white</title>
    <description>Created with Sketch (http://www.bohemiancoding.com/sketch)</description>
    <defs></defs>
    <g id="Page-1" stroke="none" stroke-width="1" fill="none" fill-rule="evenodd" sketch:type="MSPage">
        <g id="Group" sketch:type="MSLayerGroup" transform="translate(1.000000, 1.000000)" fill="#FFFFFF">
            <g transform="translate(0.000000, 7.000000)" id="Shape" sketch:type="MSShapeGroup">
                <path d="M2,7.9 C1.3,7.8 0.5,7.8 -0.2,7.9 C0.4,5.3 1,2.8 1.9,7.10542736e-15 C2.7,-0.2 3.6,-0.1 4.4,-0.1 C3.5,2.7 2.8,5.2 2,7.9 L2,7.9 Z"></path>
                <path d="M5.8,-2.84217094e-14 C6.6,-0.1 7.3,-0.1 8.1,-2.84217094e-14 C8.2,1 8.3,2.4 8.4,3.5 C9.1,2.5 9.7,1.1 10.4,0.1 C11.3,-2.84217094e-14 11.8,-2.84217094e-14 12.7,-2.84217094e-14 C12.4,2.5 12.1,5.4 11.8,7.8 L9.8,7.8 C9.9,6.6 9.9,5.1 10,3.9 C9.3,5.2 8.6,6.5 7.9,7.8 L6.7,7.8 C6.6,6.6 6.5,5.2 6.5,4 C5.8,5.4 5.4,6.7 5,7.9 C4.3,7.8 3.7,7.8 3,7.9 C3.8,5.1 4.6,2.7 5.8,-2.84217094e-14 L5.8,-2.84217094e-14 Z"></path>
                <path d="M14.6,0.1 C15.2,-0.1 16.2,-0.3 17.2,-0.3 C18.3,-0.3 20.1,-0.1 20.1,2 C20.1,4.3 18.2,6.2 15,5.8 C14.6,6.9 14.5,7.2 14.2,7.9 L12.2,7.9 C13,5.4 13.7,2.8 14.6,0.1 L14.6,0.1 Z M17.3,3.6 C17.9,3.1 18.2,1.8 17.2,1.7 C16.9,1.7 16.6,1.7 16.2,1.9 C16,2.6 15.8,3.3 15.6,4 C16.3,4 16.9,3.9 17.3,3.6 L17.3,3.6 Z"></path>
                <path d="M22.1,5.6 C22,6.2 22.4,6.2 22.7,6.2 C23.3,6.2 23.6,6 23.8,5.4 C24.3,3.9 24.9,1.5 25.2,8.52651283e-14 C26.2,-0.1 26.8,-0.1 27.6,8.52651283e-14 C27.2,1.6 26.6,3.8 26.1,5.5 C25.4,7.8 24.3,8.1 22.2,8.1 C21.5,8.1 20.9,8 20.5,7.7 C19.6,7.1 19.8,6 20,5 C20.4,3.3 21,1.3 21.4,0.1 C22.2,1.42108547e-13 23,1.42108547e-13 23.6,0.1 C23.2,1.7 22.4,4 22.1,5.6 L22.1,5.6 Z"></path>
                <path d="M31.8,5.8 C31.5,6.5 31.3,7.1 30.9,7.8 C29.4,7.9 27.5,7.9 26.5,7.9 C27.2,5.2 27.8,2.8 28.7,5.68434189e-14 C29.6,-0.2 30.4,-0.2 31.3,-0.2 C30.2,2.4 29.7,3.9 29,5.9 C29.8,6 31,5.9 31.8,5.8 L31.8,5.8 Z"></path>
                <path d="M32.1,6 C32.6,6.1 33.4,6.2 33.9,6.1 C35.1,6 35.5,5.3 34.3,4.6 C33.5,4.1 33,3.7 32.9,2.8 C32.9,2.4 33,1.9 33.2,1.6 C33.8,0.4 35.5,-2.52575738e-14 36.8,-0.2 C37.6,-0.3 38.2,-0.2 39,-0.2 L38.4,2.1 C37.9,2 36.8,2 36.3,2.2 C35.9,2.4 35.5,2.8 35.5,3.2 C35.5,3.7 36.5,4 36.8,4.3 C37.3,4.6 37.9,5 37.8,5.7 C37.8,5.9 37.7,6.2 37.5,6.4 C36.3,8 33.5,8.1 31.7,7.8 L32.1,6 L32.1,6 Z"></path>
                <path d="M43.3,3.4 C43.1,4 43,4.4 42.8,4.9 L40.2,4.9 C40.1,5.3 40,5.6 39.8,6 C40.5,6 41.8,6 42.6,5.9 C42.3,6.6 42.1,7.2 41.7,7.9 C40.2,8 38.3,8 37.3,8 C37.9,5.4 38.5,2.9 39.4,0.2 C40.9,-1.27675648e-14 43.1,-0.1 44.6,-1.27675648e-14 C44.3,0.7 44,1.5 43.7,2.2 C43,2.2 41.7,2.2 40.9,2.3 C40.8,2.7 40.6,3.1 40.5,3.5 C41.5,3.3 42.6,3.3 43.3,3.4 L43.3,3.4 Z"></path>
            </g>
            <g transform="translate(12.000000, 0.000000)" id="Shape" sketch:type="MSShapeGroup">
                <path d="M1.4,0 C1.8,-0.1 2.6,-0.3 3.3,-0.3 C4.1,-0.3 5.4,-0.2 5.4,1.4 C5.4,3 4,4.5 1.7,4.1 C1.4,4.9 1.4,5.1 1.2,5.6 L-0.2,5.6 C0.2,3.8 0.7,2 1.4,0 L1.4,0 Z M3.3,2.5 C3.7,2.1 3.9,1.2 3.3,1.1 C3.1,1.1 2.8,1.1 2.6,1.2 C2.4,1.7 2.3,2.2 2.2,2.7 C2.6,2.9 3.1,2.8 3.3,2.5 L3.3,2.5 Z"></path>
                <path d="M6.5,5.7 C6,5.7 5.4,5.6 4.9,5.7 C5.3,3.8 5.8,2 6.4,0 C7,-0.1 7.6,-0.1 8.2,-0.1 C7.6,1.9 7,3.7 6.5,5.7 L6.5,5.7 Z"></path>
                <path d="M12.5,-0.1 C12.5,0.2 12.4,0.6 12.3,0.9 C11.8,1.5 10.1,3.4 9.4,4.4 C10.1,4.4 10.6,4.3 11.3,4.2 C11.2,4.6 11,5.3 10.9,5.7 L7.1,5.7 C7.1,5.5 7.2,5.2 7.2,5 C8,3.8 9.2,2.3 10.1,1.3 C9.6,1.3 8.7,1.3 8.2,1.4 C8.3,0.9 8.4,0.4 8.6,-0.1 C9.9,-0.2 11.3,-0.2 12.5,-0.1 L12.5,-0.1 Z"></path>
                <path d="M16.9,-0.1 C16.9,0.2 16.8,0.6 16.7,0.9 C16.2,1.5 14.5,3.4 13.8,4.4 C14.5,4.4 15,4.3 15.7,4.2 C15.6,4.6 15.4,5.3 15.3,5.7 L11.5,5.7 C11.5,5.5 11.6,5.2 11.6,5 C12.4,3.8 13.6,2.3 14.5,1.3 C14,1.3 13.1,1.3 12.6,1.4 C12.7,0.9 12.8,0.4 13,-0.1 C14.3,-0.2 15.7,-0.2 16.9,-0.1 L16.9,-0.1 Z"></path>
                <path d="M15.7,5.6 C16.5,3.7 17.4,1.7 18.4,-0.1 C19.2,-0.2 19.8,-0.2 20.6,-0.2 C20.6,1.8 20.7,3.8 20.6,5.7 L19.1,5.7 L19.1,4.7 C18.6,4.7 18.2,4.7 17.7,4.8 C17.5,5.1 17.4,5.4 17.2,5.7 C16.6,5.6 16.1,5.6 15.7,5.6 L15.7,5.6 Z M19.3,3.3 C19.3,2.6 19.3,1.9 19.2,1.2 C18.8,1.9 18.4,2.6 18.1,3.3 L19.3,3.3 L19.3,3.3 Z"></path>
            </g>
        </g>
    </g>
</svg>