<?xml version="1.0" standalone="no"?>
<!DOCTYPE svg PUBLIC "-//W3C//DTD SVG 1.1//EN" "http://www.w3.org/Graphics/SVG/1.1/DTD/svg11.dtd">
<svg width="100%" height="100%" viewBox="0 0 157 157" version="1.1" xmlns="http://www.w3.org/2000/svg" xmlns:xlink="http://www.w3.org/1999/xlink" xml:space="preserve" style="fill-rule:evenodd;clip-rule:evenodd;stroke-linejoin:round;stroke-miterlimit:1.41421;">
    <path d="M77.3893,6.80234L77.3893,0.000390244C34.6459,0.000390244 0,34.6501 0,77.3936L6.27122,77.3936C7.30537,38.6697 38.599,7.54771 77.3893,6.80234" style="fill:rgb(172,34,42);fill-rule:nonzero;"/>
    <path d="M61.1965,67.2101C57.1731,67.2101 53.9106,63.9477 53.9106,59.9204C53.9106,55.897 57.1731,52.6345 61.1965,52.6345C65.2238,52.6345 68.4862,55.897 68.4862,59.9204C68.4862,63.9477 65.2238,67.2101 61.1965,67.2101M46.617,36.3692C46.617,32.338 49.8833,29.0755 53.9067,29.0755C57.9341,29.0755 61.1965,32.338 61.1965,36.3692C61.1965,40.3965 57.9341,43.6589 53.9067,43.6589C49.8833,43.6589 46.617,40.3965 46.617,36.3692M33.4345,69.8989C29.4111,69.8989 26.1487,66.6365 26.1487,62.6053C26.1487,58.5819 29.4111,55.3194 33.4345,55.3194C37.4619,55.3194 40.7243,58.5819 40.7243,62.6053C40.7243,66.6365 37.4619,69.8989 33.4345,69.8989M9.91844,77.3916L77.3877,77.3916L77.3877,10.4492C40.6111,11.1945 10.9565,40.6853 9.91844,77.3916" style="fill:rgb(172,34,42);fill-rule:nonzero;"/>
    <path d="M150.225,77.3932L157.027,77.3932C157.027,34.6498 122.373,0 79.6336,0L79.6336,6.27122C118.357,7.30927 149.479,38.599 150.225,77.3932" style="fill:rgb(172,34,42);fill-rule:nonzero;"/>
    <path d="M122.885,65.415C118.861,65.415 115.599,62.1526 115.599,58.1214C115.599,54.098 118.861,50.8355 122.885,50.8355C126.912,50.8355 130.174,54.098 130.174,58.1214C130.174,62.1526 126.912,65.415 122.885,65.415M99.3296,40.014C95.3061,40.014 92.0437,36.7516 92.0437,32.7204C92.0437,28.697 95.3061,25.4345 99.3296,25.4345C103.361,25.4345 106.623,28.697 106.623,32.7204C106.623,36.7516 103.361,40.014 99.3296,40.014M97.3705,65.415C93.3432,65.415 90.0808,62.1526 90.0808,58.1214C90.0808,54.098 93.3432,50.8355 97.3705,50.8355C101.398,50.8355 104.66,54.098 104.66,58.1214C104.66,62.1526 101.398,65.415 97.3705,65.415M79.634,9.91844L79.634,77.3916L146.576,77.3916C145.835,40.615 116.34,10.9565 79.634,9.91844" style="fill:rgb(172,34,42);fill-rule:nonzero;"/>
    <path d="M6.80273,79.9161L0.000780488,79.9161C0.000780488,122.66 34.6505,157.305 77.3901,157.305L77.3901,151.034C38.67,150 7.5442,118.706 6.80273,79.9161" style="fill:rgb(172,34,42);fill-rule:nonzero;"/>
    <path d="M65.9641,99.9044C61.9407,99.9044 58.6782,96.642 58.6782,92.6146C58.6782,88.5873 61.9407,85.3249 65.9641,85.3249C69.9914,85.3249 73.2578,88.5873 73.2578,92.6146C73.2578,96.642 69.9914,99.9044 65.9641,99.9044M61.1953,133.188C57.1719,133.188 53.9095,129.926 53.9095,125.899C53.9095,121.875 57.1719,118.613 61.1953,118.613C65.2265,118.613 68.4851,121.875 68.4851,125.899C68.4851,129.926 65.2265,133.188 61.1953,133.188M36.3602,111.6C32.3368,111.6 29.0743,108.334 29.0743,104.306C29.0743,100.283 32.3368,97.0205 36.3602,97.0205C40.3875,97.0205 43.6539,100.283 43.6539,104.306C43.6539,108.334 40.3875,111.6 36.3602,111.6M10.448,79.9161C11.1934,116.697 40.6841,146.347 77.3904,147.385L77.3904,79.9161L10.448,79.9161Z" style="fill:rgb(172,34,42);fill-rule:nonzero;"/>
    <path d="M79.634,150.503L79.634,157.305C122.377,157.305 157.027,122.655 157.027,79.9153L150.756,79.9153C149.718,118.635 118.428,149.761 79.634,150.503" style="fill:rgb(172,34,42);fill-rule:nonzero;"/>
    <path d="M118.327,110.255C114.304,110.255 111.041,106.993 111.041,102.965C111.041,98.9381 114.304,95.6757 118.327,95.6757C122.354,95.6757 125.617,98.9381 125.617,102.965C125.617,106.993 122.354,110.255 118.327,110.255M95.1309,98.2201C91.0997,98.2201 87.8412,94.9577 87.8412,90.9303C87.8412,86.9069 91.0997,83.6445 95.1309,83.6445C99.1582,83.6445 102.421,86.9069 102.421,90.9303C102.421,94.9577 99.1582,98.2201 95.1309,98.2201M95.1309,133.19C91.0997,133.19 87.8412,129.927 87.8412,125.9C87.8412,121.877 91.0997,118.614 95.1309,118.614C99.1582,118.614 102.421,121.877 102.421,125.9C102.421,129.927 99.1582,133.19 95.1309,133.19M79.6343,79.9177L79.6343,146.856C116.415,146.111 146.069,116.624 147.108,79.9177L79.6343,79.9177Z" style="fill:rgb(172,34,42);fill-rule:nonzero;"/>
</svg>
