<?xml version="1.0" standalone="no"?>
<!DOCTYPE svg PUBLIC "-//W3C//DTD SVG 1.1//EN" "http://www.w3.org/Graphics/SVG/1.1/DTD/svg11.dtd">
<svg width="100%" height="100%" viewBox="0 0 461 188" version="1.1" xmlns="http://www.w3.org/2000/svg" xmlns:xlink="http://www.w3.org/1999/xlink" xml:space="preserve" style="fill-rule:evenodd;clip-rule:evenodd;stroke-linejoin:round;stroke-miterlimit:1.41421;">
    <text x="-2.05038px" y="59.3982px" style="font-family:Lato;font-size:51.9083px;font-weight:900;font-style:italic;fill:white;">+1</text>
    <path d="M458.62,121.636L459.885,171.852L201.243,186.955L199.982,136.738L458.62,121.636Z" style="fill:white;fill-rule:nonzero;"/>
    <path d="M201.711,138.331L202.894,185.164L458.156,170.261L456.974,123.428L201.711,138.331ZM201.391,188.622L198.25,135.147L460.15,121.266L461.614,173.445L201.391,188.622Z" style="fill:rgb(129,26,32);fill-rule:nonzero;"/>
    <path d="M327.546,59.4747L458.621,121.637L199.979,136.739L78.414,74.0191L327.546,59.4747Z" style="fill:white;fill-rule:nonzero;"/>
    <path d="M84.6759,75.3514L200.348,135.024L451.931,120.335L327.209,61.1856L84.6759,75.3514ZM199.618,138.454L199.205,138.239L76.7851,72.8382L327.876,57.7592L328.266,57.9426L460.067,120.46L460.106,123.242L199.618,138.454Z" style="fill:rgb(129,26,32);fill-rule:nonzero;"/>
    <path d="M201.244,186.956L79.5543,119.447L78.4109,74.023L199.98,136.739L201.244,186.956Z" style="fill:white;fill-rule:nonzero;"/>
    <path d="M81.2249,118.442L199.477,184.05L198.314,137.782L80.1713,76.834L81.2249,118.442ZM201.49,188.619L77.8142,120.311L76.7098,72.8379L201.646,135.694L201.49,188.619Z" style="fill:rgb(129,26,32);fill-rule:nonzero;"/>
    <path d="M290.114,128.263C290.243,133.367 301.861,130.159 316.565,129.305C331.269,128.442 343.492,130.257 343.363,125.152C343.234,120.048 326.559,116.196 311.855,117.055C297.15,117.913 289.986,123.154 290.114,128.263" style="fill:rgb(129,26,32);fill-rule:nonzero;"/>
    <path d="M261.764,174.936L255.7,175.314L256.395,163.763L246.67,164.372L245.975,175.919L239.907,176.294L241.561,149.148L247.626,148.77L246.927,160.231L256.652,159.623L257.351,148.161L263.423,147.79L261.764,174.936Z" style="fill:rgb(129,26,32);fill-rule:nonzero;"/>
    <path d="M285.934,158.324C285.863,157.22 285.676,156.217 285.352,155.327C285.028,154.437 284.595,153.684 284.041,153.071C283.483,152.459 282.831,151.994 282.07,151.69C281.305,151.381 280.462,151.257 279.522,151.315C278.293,151.397 277.204,151.717 276.259,152.291C275.319,152.864 274.539,153.637 273.91,154.601C273.286,155.565 272.825,156.712 272.54,158.035C272.263,159.358 272.166,160.814 272.263,162.386C272.334,163.495 272.525,164.49 272.841,165.38C273.157,166.258 273.579,167.007 274.125,167.62C274.667,168.22 275.311,168.681 276.072,168.989C276.833,169.294 277.688,169.419 278.64,169.356C279.869,169.282 280.962,168.958 281.914,168.392C282.859,167.822 283.651,167.065 284.271,166.094C284.903,165.126 285.356,163.982 285.649,162.667C285.938,161.348 286.031,159.908 285.934,158.324M292.099,157.789C292.193,159.249 292.111,160.658 291.858,162.004C291.6,163.358 291.194,164.619 290.644,165.813C290.086,166.999 289.403,168.084 288.583,169.079C287.756,170.066 286.819,170.925 285.758,171.655C284.704,172.38 283.549,172.97 282.285,173.411C281.032,173.856 279.69,174.121 278.273,174.207C276.498,174.32 274.886,174.105 273.438,173.567C271.986,173.036 270.734,172.263 269.68,171.245C268.626,170.222 267.791,169.001 267.179,167.577C266.562,166.144 266.203,164.587 266.098,162.898C266.004,161.442 266.09,160.037 266.347,158.679C266.609,157.321 267.003,156.049 267.557,154.866C268.111,153.676 268.802,152.587 269.629,151.596C270.457,150.605 271.401,149.746 272.455,149.017C273.512,148.291 274.671,147.705 275.928,147.264C277.188,146.823 278.535,146.546 279.967,146.464C281.731,146.355 283.331,146.566 284.782,147.104C286.234,147.643 287.479,148.416 288.525,149.438C289.579,150.457 290.41,151.694 291.022,153.126C291.635,154.562 291.998,156.115 292.099,157.789" style="fill:rgb(129,26,32);fill-rule:nonzero;"/>
    <path d="M313.417,144.681L313.077,149.488L306.236,149.918L304.878,172.259L298.892,172.626L300.211,150.288L293.331,150.718L293.627,145.91L313.417,144.681Z" style="fill:rgb(129,26,32);fill-rule:nonzero;"/>
    <path d="M328.834,148.236L328.299,157.141L331.203,156.958C332.061,156.907 332.779,156.74 333.349,156.451C333.923,156.158 334.368,155.772 334.703,155.284C335.039,154.804 335.265,154.234 335.39,153.582C335.511,152.931 335.546,152.228 335.495,151.463C335.464,150.929 335.367,150.445 335.199,150.012C335.027,149.575 334.781,149.208 334.465,148.903C334.153,148.607 333.763,148.373 333.306,148.22C332.842,148.072 332.299,148.018 331.683,148.057L328.834,148.236ZM328.007,161.707L327.46,170.855L321.466,171.229L323.086,144.08L332.003,143.526C333.599,143.424 334.984,143.538 336.151,143.858C337.314,144.174 338.282,144.654 339.054,145.29C339.835,145.926 340.424,146.702 340.822,147.608C341.228,148.521 341.462,149.512 341.529,150.585C341.618,152.049 341.482,153.426 341.111,154.699C340.736,155.979 340.12,157.106 339.246,158.074C338.383,159.05 337.251,159.83 335.87,160.439C334.485,161.04 332.826,161.411 330.891,161.528L328.007,161.707Z" style="fill:rgb(129,26,32);fill-rule:nonzero;"/>
    <path d="M349.661,169.475L343.596,169.853L345.212,142.708L351.28,142.325L349.661,169.475Z" style="fill:rgb(129,26,32);fill-rule:nonzero;"/>
    <path d="M373.897,140.923L373.748,142.753C373.725,142.999 373.666,143.241 373.565,143.467C373.459,143.701 373.342,143.928 373.202,144.142L360.78,164.123L372.179,163.417L371.871,168.096L352.64,169.286L352.753,167.502C352.773,167.253 352.839,167.015 352.937,166.784C353.046,166.554 353.167,166.336 353.299,166.109L365.733,146.09L354.954,146.757L355.255,142.078L373.897,140.923Z" style="fill:rgb(129,26,32);fill-rule:nonzero;"/>
    <path d="M394.83,139.62L394.678,141.454C394.659,141.696 394.592,141.938 394.491,142.172C394.386,142.398 394.272,142.624 394.132,142.839L381.714,162.823L393.109,162.117L392.797,166.792L373.57,167.99L373.679,166.203C373.703,165.949 373.765,165.711 373.867,165.485C373.976,165.255 374.093,165.032 374.229,164.81L386.663,144.786L375.884,145.458L376.185,140.779L394.83,139.62Z" style="fill:rgb(129,26,32);fill-rule:nonzero;"/>
    <path d="M403.533,155.824L410.3,155.402L408.508,147.792C408.384,147.316 408.239,146.762 408.079,146.107C407.919,145.463 407.763,144.768 407.603,144.011C407.365,144.791 407.111,145.517 406.862,146.196C406.616,146.875 406.397,147.465 406.218,147.972L403.533,155.824ZM418.94,165.17L414.284,165.459C413.765,165.49 413.359,165.396 413.051,165.174C412.747,164.948 412.528,164.643 412.391,164.253L411.256,159.468L402.105,160.03L400.411,164.998C400.259,165.346 400.001,165.662 399.642,165.954C399.283,166.255 398.866,166.415 398.386,166.45L393.652,166.743L404.844,138.996L411.026,138.618L418.94,165.17Z" style="fill:rgb(129,26,32);fill-rule:nonzero;"/>
    <path d="M228.106,75.0349L225.436,73.4271C187.801,76.0652 170.9,86.3871 187.684,96.4905L193.206,96.1042C178.915,86.8866 194.24,77.6027 228.106,75.0349" style="fill:rgb(129,26,32);fill-rule:nonzero;"/>
    <path d="M237.566,90.313C234.023,90.5627 229.871,89.9891 228.286,89.0369C226.706,88.0886 228.298,87.113 231.842,86.8632C235.389,86.6174 239.545,87.1871 241.125,88.1354C242.706,89.0915 241.114,90.0632 237.566,90.313M212.618,83.9169C211.038,82.9686 212.63,81.9969 216.173,81.751C219.721,81.4974 223.877,82.071 225.453,83.0193C227.038,83.9715 225.445,84.9471 221.898,85.1969C218.355,85.4427 214.203,84.8691 212.618,83.9169M214.179,92.6622C210.636,92.9081 206.48,92.3383 204.899,91.3861C203.319,90.434 204.911,89.4583 208.454,89.2125C212.002,88.9627 216.154,89.5364 217.738,90.4847C219.319,91.4369 217.726,92.4086 214.179,92.6622M196.419,95.8818L255.822,91.7179L229.535,75.8974C197.445,78.3403 182.917,87.1403 196.419,95.8818" style="fill:rgb(129,26,32);fill-rule:nonzero;"/>
    <path d="M319.948,87.2261L325.939,86.8086C309.154,76.7052 265.041,70.6525 227.41,73.2905L229.876,74.7735C264.374,72.631 304.058,78.1022 319.948,87.2261" style="fill:rgb(129,26,32);fill-rule:nonzero;"/>
    <path d="M291.174,86.0831C287.63,86.329 283.474,85.7592 281.894,84.8109C280.313,83.8587 281.906,82.887 285.449,82.6373C288.996,82.3875 293.152,82.9573 294.733,83.9095C296.313,84.8578 294.721,85.8334 291.174,86.0831M260.462,81.5329C256.918,81.7787 252.766,81.209 251.182,80.2568C249.601,79.3085 251.193,78.3368 254.737,78.087C258.284,77.8373 262.44,78.407 264.021,79.3592C265.601,80.3114 264.009,81.2831 260.462,81.5329M268.707,87.6558C265.164,87.9056 261.012,87.3319 259.427,86.3797C257.847,85.4314 259.439,84.4597 262.983,84.21C266.53,83.9602 270.686,84.53 272.267,85.4821C273.847,86.4343 272.255,87.41 268.707,87.6558M231.307,75.6324L257.796,91.5778L316.735,87.449C301.644,78.8051 264.032,73.6148 231.307,75.6324" style="fill:rgb(129,26,32);fill-rule:nonzero;"/>
    <path d="M194.663,96.6697L188.672,97.0872C205.457,107.187 249.57,113.239 287.197,110.605L284.735,109.122C250.237,111.265 210.553,105.794 194.663,96.6697" style="fill:rgb(129,26,32);fill-rule:nonzero;"/>
    <path d="M254.602,97.7444C251.058,97.9902 246.902,97.4205 245.322,96.4722C243.741,95.52 245.333,94.5483 248.877,94.2985C252.424,94.0488 256.576,94.6185 258.161,95.5707C259.741,96.5268 258.149,97.4985 254.602,97.7444M263.472,105.904C259.929,106.15 255.776,105.584 254.196,104.632C252.615,103.68 254.204,102.704 257.747,102.459C261.294,102.213 265.451,102.782 267.031,103.731C268.611,104.683 267.019,105.655 263.472,105.904M233.131,102.334C229.583,102.58 225.431,102.014 223.851,101.061C222.266,100.105 223.862,99.1337 227.406,98.8878C230.949,98.6381 235.105,99.2078 236.686,100.16C238.266,101.112 236.678,102.084 233.131,102.334M197.872,96.4449C212.971,105.093 250.578,110.283 283.304,108.261L256.811,92.3122L197.872,96.4449Z" style="fill:rgb(129,26,32);fill-rule:nonzero;"/>
    <path d="M286.505,108.861L289.175,110.469C326.81,107.831 343.711,97.5052 326.927,87.4057L321.405,87.792C335.696,97.0057 320.367,106.293 286.505,108.861" style="fill:rgb(129,26,32);fill-rule:nonzero;"/>
    <path d="M304.768,96.9596C301.224,97.2094 297.068,96.6396 295.488,95.6874C293.907,94.7391 295.499,93.7635 299.043,93.5138C302.59,93.2679 306.742,93.8377 308.327,94.786C309.907,95.7421 308.315,96.7138 304.768,96.9596M279.616,95.5508C276.073,95.7967 271.917,95.2269 270.336,94.2747C268.756,93.3225 270.348,92.3469 273.891,92.1011C277.439,91.8513 281.595,92.425 283.175,93.3772C284.756,94.3255 283.164,95.2972 279.616,95.5508M293.349,103.812C289.802,104.058 285.65,103.492 284.069,102.54C282.489,101.588 284.081,100.616 287.624,100.366C291.171,100.121 295.324,100.686 296.904,101.639C298.489,102.591 296.892,103.563 293.349,103.812M258.789,92.1752L285.072,107.996C317.166,105.553 331.694,96.7528 318.192,88.0152L258.789,92.1752Z" style="fill:rgb(129,26,32);fill-rule:nonzero;"/>
    <path d="M457.847,63.8802L459.111,114.093L200.469,129.195L199.205,78.9787L457.847,63.8802Z" style="fill:white;fill-rule:nonzero;"/>
    <path d="M200.937,80.5721L202.12,127.409L457.382,112.506L456.2,65.6726L200.937,80.5721ZM200.617,130.863L197.476,77.3877L459.376,63.5067L460.844,115.69L200.617,130.863Z" style="fill:rgb(129,26,32);fill-rule:nonzero;"/>
    <path d="M326.77,1.71551L457.845,63.8814L199.207,78.9799L77.6382,16.2638L326.77,1.71551Z" style="fill:white;fill-rule:nonzero;"/>
    <path d="M83.9024,17.5922L199.571,77.2683L451.157,62.5756L326.435,3.43024L83.9024,17.5922ZM198.845,80.6946L198.431,80.4839L76.0117,15.079L327.099,0L327.493,0.187317L459.29,62.7005L459.333,65.4829L198.845,80.6946Z" style="fill:rgb(129,26,32);fill-rule:nonzero;"/>
    <path d="M200.469,129.196L78.7828,61.6921L77.6355,16.2638L199.204,78.9799L200.469,129.196Z" style="fill:white;fill-rule:nonzero;"/>
    <path d="M80.4495,60.6829L198.705,126.287L197.538,80.0234L79.3998,19.0751L80.4495,60.6829ZM200.715,130.86L77.0388,62.5522L75.9383,15.0829L200.875,77.9356L200.715,130.86Z" style="fill:rgb(129,26,32);fill-rule:nonzero;"/>
    <path d="M289.339,70.5038C289.467,75.6082 301.085,72.4004 315.793,71.5458C330.494,70.6872 342.716,72.498 342.591,67.3936C342.459,62.2931 325.783,58.4375 311.079,59.296C296.375,60.1584 289.21,65.3994 289.339,70.5038" style="fill:rgb(129,26,32);fill-rule:nonzero;"/>
    <path d="M260.987,117.177L254.923,117.555L255.617,106.004L245.892,106.613L245.198,118.16L239.133,118.535L240.784,91.3893L246.852,91.0107L246.15,102.472L255.875,101.863L256.577,90.4059L262.645,90.0312L260.987,117.177Z" style="fill:rgb(129,26,32);fill-rule:nonzero;"/>
    <path d="M285.158,100.565C285.088,99.4603 284.901,98.4574 284.573,97.5676C284.253,96.6779 283.82,95.9208 283.266,95.312C282.707,94.6993 282.052,94.2349 281.295,93.9305C280.53,93.6222 279.687,93.4974 278.747,93.5559C277.517,93.6379 276.428,93.9579 275.484,94.5315C274.544,95.1052 273.759,95.8779 273.135,96.8418C272.51,97.8057 272.05,98.953 271.769,100.276C271.484,101.599 271.39,103.054 271.484,104.627C271.554,105.735 271.749,106.731 272.066,107.624C272.378,108.498 272.803,109.248 273.346,109.86C273.892,110.461 274.536,110.922 275.297,111.23C276.058,111.534 276.912,111.659 277.865,111.601C279.094,111.523 280.183,111.199 281.139,110.633C282.083,110.067 282.871,109.306 283.496,108.334C284.128,107.367 284.581,106.223 284.873,104.908C285.162,103.589 285.256,102.149 285.158,100.565M291.324,100.03C291.418,101.49 291.336,102.898 291.082,104.245C290.825,105.599 290.419,106.859 289.872,108.053C289.31,109.24 288.627,110.325 287.808,111.32C286.981,112.311 286.044,113.162 284.983,113.895C283.929,114.621 282.774,115.211 281.509,115.652C280.253,116.096 278.914,116.362 277.498,116.448C275.726,116.561 274.11,116.346 272.659,115.808C271.211,115.273 269.958,114.504 268.901,113.482C267.855,112.467 267.016,111.242 266.403,109.817C265.787,108.385 265.427,106.828 265.322,105.138C265.228,103.683 265.314,102.278 265.572,100.92C265.829,99.5618 266.227,98.2896 266.778,97.1071C267.332,95.9208 268.027,94.8281 268.854,93.8369C269.681,92.8457 270.626,91.9871 271.679,91.2574C272.741,90.5315 273.896,89.9461 275.152,89.5052C276.413,89.0642 277.759,88.791 279.191,88.7052C280.955,88.5959 282.555,88.8105 284.007,89.3452C285.459,89.8837 286.704,90.6564 287.749,91.6788C288.799,92.6974 289.634,93.9344 290.247,95.3666C290.86,96.8027 291.223,98.3559 291.324,100.03" style="fill:rgb(129,26,32);fill-rule:nonzero;"/>
    <path d="M312.641,86.9214L312.305,91.7292L305.46,92.1584L304.102,114.5L298.116,114.867L299.435,92.5292L292.555,92.9584L292.851,88.1506L312.641,86.9214Z" style="fill:rgb(129,26,32);fill-rule:nonzero;"/>
    <path d="M328.056,90.4769L327.522,99.3822L330.429,99.2027C331.283,99.1481 332.005,98.9842 332.575,98.6915C333.145,98.3988 333.594,98.0125 333.929,97.5247C334.265,97.0447 334.487,96.4749 334.616,95.8232C334.733,95.1715 334.772,94.4691 334.722,93.7042C334.686,93.1735 334.593,92.6857 334.421,92.2525C334.249,91.8154 334.003,91.4486 333.687,91.1442C333.375,90.8476 332.985,90.6135 332.528,90.4613C332.068,90.3169 331.525,90.2583 330.905,90.2974L328.056,90.4769ZM327.229,103.948L326.683,113.095L320.688,113.47L322.308,86.3208L331.225,85.7666C332.825,85.6652 334.21,85.7783 335.373,86.0983C336.54,86.4144 337.504,86.8944 338.281,87.5305C339.057,88.1705 339.646,88.9432 340.048,89.8525C340.454,90.7618 340.688,91.753 340.751,92.8261C340.844,94.2896 340.708,95.6671 340.333,96.9393C339.959,98.2193 339.346,99.3471 338.468,100.315C337.605,101.287 336.474,102.075 335.092,102.68C333.707,103.281 332.048,103.652 330.117,103.769L327.229,103.948Z" style="fill:rgb(129,26,32);fill-rule:nonzero;"/>
    <path d="M348.885,111.716L342.821,112.094L344.436,84.9487L350.508,84.5701L348.885,111.716Z" style="fill:rgb(129,26,32);fill-rule:nonzero;"/>
    <path d="M373.121,83.1637L372.973,84.994C372.949,85.2398 372.887,85.4818 372.789,85.7081C372.684,85.9422 372.567,86.1647 372.427,86.3832L360.005,106.364L371.404,105.661L371.092,110.336L351.865,111.531L351.974,109.743C351.997,109.493 352.064,109.255 352.165,109.025C352.27,108.795 352.391,108.576 352.524,108.354L364.957,88.3305L354.179,88.9979L354.479,84.3188L373.121,83.1637Z" style="fill:rgb(129,26,32);fill-rule:nonzero;"/>
    <path d="M394.055,81.8603L393.902,83.6944C393.883,83.9364 393.817,84.1783 393.719,84.4125C393.614,84.6388 393.497,84.8652 393.352,85.0798L380.939,105.064L392.334,104.358L392.025,109.033L372.794,110.231L372.903,108.444C372.927,108.19 372.993,107.952 373.095,107.726C373.196,107.495 373.321,107.273 373.454,107.051L385.883,87.0271L375.112,87.6983L375.409,83.0232L394.055,81.8603Z" style="fill:rgb(129,26,32);fill-rule:nonzero;"/>
    <path d="M402.757,98.0648L409.528,97.6433L407.737,90.0336C407.608,89.5575 407.463,89.0033 407.303,88.3516C407.143,87.7077 406.987,87.0092 406.827,86.2521C406.585,87.0326 406.332,87.7584 406.086,88.4375C405.84,89.1165 405.621,89.7058 405.442,90.2131L402.757,98.0648ZM418.164,107.411L413.508,107.7C412.989,107.731 412.583,107.637 412.275,107.415C411.971,107.189 411.748,106.884 411.616,106.498L410.48,101.71L401.329,102.276L399.635,107.239C399.483,107.587 399.225,107.903 398.866,108.199C398.507,108.496 398.086,108.656 397.61,108.691L392.876,108.984L404.068,81.2375L410.25,80.8589L418.164,107.411Z" style="fill:rgb(129,26,32);fill-rule:nonzero;"/>
    <path d="M227.33,17.2757L224.661,15.6718C187.026,18.306 170.124,28.6318 186.909,38.7352L192.431,38.345C178.14,29.1313 193.469,19.8435 227.33,17.2757" style="fill:rgb(129,26,32);fill-rule:nonzero;"/>
    <path d="M236.793,32.5541C233.25,32.8 229.093,32.2302 227.513,31.282C225.932,30.3298 227.521,29.358 231.068,29.1083C234.615,28.8585 238.768,29.4283 240.352,30.3805C241.932,31.3288 240.34,32.3044 236.793,32.5541M211.845,26.162C210.264,25.2098 211.856,24.238 215.4,23.9922C218.947,23.7424 223.103,24.3122 224.68,25.2644C226.264,26.2166 224.672,27.1883 221.125,27.4341C217.581,27.6839 213.425,27.1141 211.845,26.162M213.402,34.9034C209.858,35.1493 205.706,34.5756 204.122,33.6273C202.545,32.6751 204.133,31.7034 207.681,31.4576C211.228,31.2039 215.38,31.7776 216.961,32.7298C218.541,33.678 216.949,34.6498 213.402,34.9034M195.642,38.1229L255.049,33.959L228.762,18.1424C196.672,20.5854 182.143,29.3854 195.642,38.1229" style="fill:rgb(129,26,32);fill-rule:nonzero;"/>
    <path d="M319.173,29.4669L325.163,29.0494C308.379,18.9499 264.266,12.8972 226.638,15.5313L229.097,17.0142C263.598,14.8718 303.286,20.3469 319.173,29.4669" style="fill:rgb(129,26,32);fill-rule:nonzero;"/>
    <path d="M290.4,28.3239C286.857,28.5698 282.7,28.0039 281.12,27.0517C279.539,26.0995 281.132,25.1278 284.675,24.878C288.222,24.6322 292.375,25.198 293.955,26.1502C295.536,27.1063 293.947,28.0741 290.4,28.3239M259.688,23.7737C256.144,24.0195 251.988,23.4537 250.408,22.5015C248.827,21.5493 250.419,20.5776 253.963,20.3278C257.51,20.082 261.666,20.6478 263.247,21.6C264.827,22.5522 263.235,23.5239 259.688,23.7737M267.934,29.8966C264.39,30.1463 260.234,29.5727 258.654,28.6244C257.073,27.6722 258.665,26.7005 262.209,26.4507C265.756,26.2049 269.908,26.7707 271.493,27.7268C273.073,28.679 271.481,29.6507 267.934,29.8966M230.533,17.8732L257.022,33.8224L315.961,29.6976C300.866,21.0498 263.255,15.8595 230.533,17.8732" style="fill:rgb(129,26,32);fill-rule:nonzero;"/>
    <path d="M193.887,38.9108L187.901,39.3284C204.681,49.4318 248.795,55.4845 286.426,52.8464L283.959,51.3635C249.462,53.5099 209.778,48.0347 193.887,38.9108" style="fill:rgb(129,26,32);fill-rule:nonzero;"/>
    <path d="M253.826,39.9856C250.283,40.2314 246.126,39.6656 244.546,38.7134C242.965,37.7612 244.558,36.7895 248.101,36.5397C251.648,36.2939 255.804,36.8597 257.385,37.8119C258.965,38.768 257.373,39.7397 253.826,39.9856M262.696,48.1495C259.153,48.3953 255.001,47.8256 253.42,46.8773C251.84,45.9212 253.428,44.9495 256.975,44.7036C260.523,44.4539 264.675,45.0236 266.255,45.9758C267.836,46.9241 266.247,47.8958 262.696,48.1495M232.355,44.5748C228.811,44.8246 224.655,44.2548 223.075,43.3026C221.494,42.3465 223.086,41.3748 226.63,41.129C230.177,40.8792 234.329,41.449 235.91,42.4012C237.49,43.3534 235.902,44.3251 232.355,44.5748M197.1,38.686C212.195,47.3339 249.803,52.5241 282.528,50.5026L256.039,34.5573L197.1,38.686Z" style="fill:rgb(129,26,32);fill-rule:nonzero;"/>
    <path d="M285.73,51.102L288.403,52.7099C326.034,50.0718 342.935,39.7499 326.151,29.6464L320.629,30.0328C334.924,39.2503 319.595,48.5342 285.73,51.102" style="fill:rgb(129,26,32);fill-rule:nonzero;"/>
    <path d="M303.994,39.2043C300.45,39.4501 296.294,38.8804 294.714,37.9282C293.133,36.9799 294.722,36.0082 298.269,35.7545C301.816,35.5087 305.968,36.0784 307.549,37.0306C309.129,37.9789 307.541,38.9545 303.994,39.2043M278.843,37.7916C275.299,38.0375 271.147,37.4716 269.563,36.5155C267.982,35.5633 269.574,34.5916 273.118,34.3458C276.665,34.0921 280.817,34.6658 282.402,35.618C283.982,36.5701 282.39,37.5419 278.843,37.7916M292.571,46.057C289.028,46.3028 284.876,45.7331 283.291,44.7809C281.711,43.8326 283.303,42.857 286.846,42.6072C290.398,42.3614 294.55,42.9311 296.13,43.8794C297.711,44.8316 296.119,45.8033 292.571,46.057M258.015,34.416L284.298,50.2404C316.388,47.7975 330.921,38.9975 317.418,30.256L258.015,34.416Z" style="fill:rgb(129,26,32);fill-rule:nonzero;"/>
</svg>
