<?xml version="1.0" standalone="no"?>
<!DOCTYPE svg PUBLIC "-//W3C//DTD SVG 1.1//EN" "http://www.w3.org/Graphics/SVG/1.1/DTD/svg11.dtd">
<svg width="100%" height="100%" viewBox="0 0 55 55" version="1.1" xmlns="http://www.w3.org/2000/svg" xmlns:xlink="http://www.w3.org/1999/xlink" xml:space="preserve" style="fill-rule:evenodd;clip-rule:evenodd;stroke-linejoin:round;stroke-miterlimit:1.41421;">
    <path d="M27.282,2.40039L27.282,0.000390244C12.2146,0.000390244 0,12.2189 0,27.2862L2.20878,27.2862C2.57561,13.6355 13.6078,2.65795 27.282,2.40039" style="fill:white;fill-rule:nonzero;"/>
    <path d="M21.5731,23.696C20.1565,23.696 19.0053,22.5448 19.0053,21.1282C19.0053,19.7038 20.1565,18.5526 21.5731,18.5526C22.9936,18.5526 24.1448,19.7038 24.1448,21.1282C24.1448,22.5448 22.9936,23.696 21.5731,23.696M16.4336,12.8199C16.4336,11.4033 17.5848,10.2521 19.0014,10.2521C20.4258,10.2521 21.5731,11.4033 21.5731,12.8199C21.5731,14.2365 20.4258,15.3877 19.0014,15.3877C17.5848,15.3877 16.4336,14.2365 16.4336,12.8199M11.7858,24.6404C10.3653,24.6404 9.21405,23.4892 9.21405,22.0726C9.21405,20.656 10.3653,19.5048 11.7858,19.5048C13.2062,19.5048 14.3575,20.656 14.3575,22.0726C14.3575,23.4892 13.2062,24.6404 11.7858,24.6404M3.49698,27.2862L27.2823,27.2862L27.2823,3.68039C14.3145,3.94576 3.8599,14.3458 3.49698,27.2862" style="fill:white;fill-rule:nonzero;"/>
    <path d="M52.9604,27.2859L55.3565,27.2859C55.3565,12.2185 43.1419,0 28.0745,0L28.0745,2.20878C41.7253,2.57561 52.6989,13.6039 52.9604,27.2859" style="fill:white;fill-rule:nonzero;"/>
    <path d="M43.3206,23.0634C41.904,23.0634 40.7528,21.9122 40.7528,20.4878C40.7528,19.0712 41.904,17.92 43.3206,17.92C44.7411,17.92 45.8923,19.0712 45.8923,20.4878C45.8923,21.9122 44.7411,23.0634 43.3206,23.0634M35.0162,14.1073C33.5996,14.1073 32.4484,12.9561 32.4484,11.5395C32.4484,10.1151 33.5996,8.9639 35.0162,8.9639C36.4367,8.9639 37.5879,10.1151 37.5879,11.5395C37.5879,12.9561 36.4367,14.1073 35.0162,14.1073M34.3255,23.0634C32.905,23.0634 31.7577,21.9122 31.7577,20.4878C31.7577,19.0712 32.905,17.92 34.3255,17.92C35.746,17.92 36.8972,19.0712 36.8972,20.4878C36.8972,21.9122 35.746,23.0634 34.3255,23.0634M28.0738,3.49659L28.0738,27.2859L51.6757,27.2859C51.4142,14.3141 41.0142,3.86341 28.0738,3.49659" style="fill:white;fill-rule:nonzero;"/>
    <path d="M2.39649,28.1701L0.000390244,28.1701C0.000390244,43.2375 12.215,55.456 27.2823,55.456L27.2823,53.2472C13.6316,52.8804 2.65795,41.8521 2.39649,28.1701" style="fill:white;fill-rule:nonzero;"/>
    <path d="M23.2558,35.2207C21.8353,35.2207 20.6841,34.0695 20.6841,32.6529C20.6841,31.2363 21.8353,30.0851 23.2558,30.0851C24.6763,30.0851 25.8275,31.2363 25.8275,32.6529C25.8275,34.0695 24.6763,35.2207 23.2558,35.2207M21.5739,46.9592C20.1534,46.9592 19.006,45.808 19.006,44.3836C19.006,42.9631 20.1534,41.8119 21.5739,41.8119C22.9943,41.8119 24.1417,42.9631 24.1417,44.3836C24.1417,45.808 22.9943,46.9592 21.5739,46.9592M12.8168,39.3456C11.4002,39.3456 10.249,38.1943 10.249,36.7739C10.249,35.3495 11.4002,34.206 12.8168,34.206C14.2373,34.206 15.3885,35.3495 15.3885,36.7739C15.3885,38.1943 14.2373,39.3456 12.8168,39.3456M3.68117,28.169C3.94654,41.1446 14.3426,51.5914 27.2831,51.9582L27.2831,28.169L3.68117,28.169Z" style="fill:white;fill-rule:nonzero;"/>
    <path d="M28.0745,53.056L28.0745,55.456C43.1419,55.456 55.3565,43.2375 55.3565,28.1701L53.1438,28.1701C52.7809,41.8209 41.7487,52.7984 28.0745,53.056" style="fill:white;fill-rule:nonzero;"/>
    <path d="M41.7143,38.8714C40.2978,38.8714 39.1465,37.7202 39.1465,36.2958C39.1465,34.8792 40.2978,33.728 41.7143,33.728C43.1348,33.728 44.286,34.8792 44.286,36.2958C44.286,37.7202 43.1348,38.8714 41.7143,38.8714M33.5348,34.6256C32.1143,34.6256 30.967,33.4743 30.967,32.0578C30.967,30.6412 32.1143,29.49 33.5348,29.49C34.9592,29.49 36.1065,30.6412 36.1065,32.0578C36.1065,33.4743 34.9592,34.6256 33.5348,34.6256M33.5348,46.9573C32.1143,46.9573 30.967,45.806 30.967,44.3817C30.967,42.9651 32.1143,41.8139 33.5348,41.8139C34.9592,41.8139 36.1065,42.9651 36.1065,44.3817C36.1065,45.806 34.9592,46.9573 33.5348,46.9573M28.0753,28.1709L28.0753,51.7768C41.0431,51.5075 51.4939,41.1114 51.8607,28.1709L28.0753,28.1709Z" style="fill:white;fill-rule:nonzero;"/>
</svg>
